AtkinsonHyperlegibleMono-ExtraBold.sfdir
StartChar: exclam
Encoding: 33 33 254
Width: 632
GlyphClass: 1
Flags: W
LayerCount: 2
Fore
SplineSet
227 495 m 1,0,-1
 227 668 l 1,1,-1
 403 668 l 1,2,-1
 403 495 l 1,3,-1
 371 251 l 1,4,-1
 259 251 l 1,5,-1
 227 495 l 1,0,-1
242 18.5 m 128,-1,7
 212 49 212 49 212 91 c 0,8,9
 212 134 212 134 242 164.5 c 128,-1,10
 272 195 272 195 315 195 c 256,11,12
 358 195 358 195 388 164.5 c 128,-1,13
 418 134 418 134 418 91 c 0,14,15
 418 49 418 49 388 18.5 c 128,-1,16
 358 -12 358 -12 315 -12 c 256,17,6
 272 -12 272 -12 242 18.5 c 128,-1,7
EndSplineSet
EndChar
StartChar: numbersign
Encoding: 35 35 261
Width: 632
GlyphClass: 1
Flags: W
LayerCount: 2
Fore
SplineSet
98 144 m 1,0,-1
 21 144 l 1,1,-1
 37 285 l 1,2,-1
 111 285 l 1,3,-1
 123 383 l 1,4,-1
 47 383 l 1,5,-1
 63 524 l 1,6,-1
 139 524 l 1,7,-1
 155 668 l 1,8,-1
 303 668 l 1,9,-1
 287 524 l 1,10,-1
 386 524 l 1,11,-1
 402 668 l 1,12,-1
 551 668 l 1,13,-1
 534 524 l 1,14,-1
 611 524 l 1,15,-1
 595 383 l 1,16,-1
 521 383 l 1,17,-1
 509 285 l 1,18,-1
 585 285 l 1,19,-1
 569 144 l 1,20,-1
 493 144 l 1,21,-1
 477 0 l 1,22,-1
 329 0 l 1,23,-1
 345 144 l 1,24,-1
 246 144 l 1,25,-1
 230 0 l 1,26,-1
 81 0 l 1,27,-1
 98 144 l 1,0,-1
361 285 m 1,28,-1
 372 383 l 1,29,-1
 271 383 l 1,30,-1
 260 285 l 1,31,-1
 361 285 l 1,28,-1
EndSplineSet
EndChar
StartChar: ampersand
Encoding: 38 38 289
Width: 632
GlyphClass: 1
Flags: W
LayerCount: 2
Fore
SplineSet
126 12 m 128,-1,1
 75 37 75 37 47.5 81.5 c 128,-1,2
 20 126 20 126 20 182 c 256,3,4
 20 238 20 238 54.5 292.5 c 128,-1,5
 89 347 89 347 160 382 c 1,6,7
 107 450 107 450 107 536 c 0,8,9
 107 587 107 587 132 626 c 128,-1,10
 157 665 157 665 200 687 c 128,-1,11
 243 709 243 709 297 709 c 0,12,13
 346 709 346 709 386.5 685 c 128,-1,14
 427 661 427 661 450.5 620.5 c 128,-1,15
 474 580 474 580 474 533 c 0,16,17
 474 420 474 420 358 350 c 1,18,-1
 438 248 l 1,19,20
 468 298 468 298 482 371 c 1,21,-1
 610 371 l 1,22,23
 598 303 598 303 572.5 241.5 c 128,-1,24
 547 180 547 180 518 143 c 1,25,-1
 627 0 l 1,26,-1
 462 0 l 1,27,-1
 424 48 l 1,28,29
 380 14 380 14 336.5 0.5 c 128,-1,30
 293 -13 293 -13 245 -13 c 0,31,0
 177 -13 177 -13 126 12 c 128,-1,1
344 147 m 1,33,-1
 236 282 l 1,34,35
 173 252 173 252 173 193 c 0,36,37
 173 162 173 162 195.5 141 c 128,-1,38
 218 120 218 120 258 120 c 0,39,32
 304 120 304 120 344 147 c 1,33,-1
335.5 484 m 128,-1,41
 350 508 350 508 350 530 c 0,42,43
 350 555 350 555 334.5 572 c 128,-1,44
 319 589 319 589 294 589 c 0,45,46
 270 589 270 589 254 573.5 c 128,-1,47
 238 558 238 558 238 534 c 0,48,49
 238 515 238 515 250 493.5 c 128,-1,50
 262 472 262 472 292 441 c 1,51,40
 321 460 321 460 335.5 484 c 128,-1,41
EndSplineSet
EndChar
StartChar: parenleft
Encoding: 40 40 268
Width: 632
GlyphClass: 1
Flags: W
LayerCount: 2
Fore
SplineSet
175.5 46.5 m 128,-1,1
 126 157 126 157 126 273 c 256,2,3
 126 389 126 389 175.5 499.5 c 128,-1,4
 225 610 225 610 319 708 c 1,5,-1
 502 708 l 1,6,7
 398 607 398 607 341.5 494.5 c 128,-1,8
 285 382 285 382 285 273 c 0,9,10
 285 165 285 165 341.5 52 c 128,-1,11
 398 -61 398 -61 502 -162 c 1,12,-1
 319 -162 l 1,13,0
 225 -64 225 -64 175.5 46.5 c 128,-1,1
EndSplineSet
EndChar
StartChar: parenright
Encoding: 41 41 269
Width: 632
GlyphClass: 1
Flags: W
LayerCount: 2
Fore
SplineSet
290.5 52 m 128,-1,1
 347 165 347 165 347 273 c 0,2,3
 347 382 347 382 290.5 494.5 c 128,-1,4
 234 607 234 607 130 708 c 1,5,-1
 313 708 l 1,6,7
 407 610 407 610 456.5 499.5 c 128,-1,8
 506 389 506 389 506 273 c 256,9,10
 506 157 506 157 456.5 46.5 c 128,-1,11
 407 -64 407 -64 313 -162 c 1,12,-1
 130 -162 l 1,13,0
 234 -61 234 -61 290.5 52 c 128,-1,1
EndSplineSet
EndChar
StartChar: plus
Encoding: 43 43 311
Width: 632
GlyphClass: 1
Flags: W
LayerCount: 2
Fore
SplineSet
247 179 m 1,0,-1
 58 179 l 1,1,-1
 58 317 l 1,2,-1
 247 317 l 1,3,-1
 247 496 l 1,4,-1
 384 496 l 1,5,-1
 384 317 l 1,6,-1
 574 317 l 1,7,-1
 574 179 l 1,8,-1
 384 179 l 1,9,-1
 384 0 l 1,10,-1
 247 0 l 1,11,-1
 247 179 l 1,0,-1
EndSplineSet
EndChar
StartChar: comma
Encoding: 44 44 250
Width: 632
GlyphClass: 1
Flags: W
LayerCount: 2
Fore
SplineSet
226.5 32 m 128,-1,1
 202 64 202 64 202 102 c 0,2,3
 202 150 202 150 235.5 183.5 c 128,-1,4
 269 217 269 217 316 217 c 0,5,6
 364 217 364 217 397 183.5 c 128,-1,7
 430 150 430 150 430 102 c 0,8,9
 430 79 430 79 423 61 c 2,10,-1
 335 -161 l 1,11,-1
 229 -161 l 1,12,-1
 288 -8 l 1,13,0
 251 0 251 0 226.5 32 c 128,-1,1
EndSplineSet
EndChar
StartChar: hyphen
Encoding: 45 45 264
Width: 632
GlyphClass: 1
Flags: W
LayerCount: 2
Fore
SplineSet
150 318 m 1,0,-1
 482 318 l 1,1,-1
 482 179 l 1,2,-1
 150 179 l 1,3,-1
 150 318 l 1,0,-1
EndSplineSet
EndChar
StartChar: period
Encoding: 46 46 249
Width: 632
GlyphClass: 1
Flags: W
LayerCount: 2
Fore
SplineSet
235.5 21.5 m 128,-1,1
 202 55 202 55 202 102 c 256,2,3
 202 149 202 149 235.5 183 c 128,-1,4
 269 217 269 217 316 217 c 256,5,6
 363 217 363 217 396.5 183 c 128,-1,7
 430 149 430 149 430 102 c 256,8,9
 430 55 430 55 396.5 21.5 c 128,-1,10
 363 -12 363 -12 316 -12 c 256,11,0
 269 -12 269 -12 235.5 21.5 c 128,-1,1
EndSplineSet
EndChar
StartChar: zero
Encoding: 48 48 229
Width: 632
GlyphClass: 1
Flags: W
LayerCount: 2
Fore
SplineSet
101.5 81 m 128,-1,1
 26 174 26 174 26 335 c 256,2,3
 26 496 26 496 101 588 c 128,-1,4
 176 680 176 680 316 680 c 256,5,6
 456 680 456 680 531 588.5 c 128,-1,7
 606 497 606 497 606 335 c 0,8,9
 606 174 606 174 531 81 c 128,-1,10
 456 -12 456 -12 316 -12 c 0,11,0
 177 -12 177 -12 101.5 81 c 128,-1,1
395 143 m 1,13,-1
 199 424 l 1,14,15
 190 385 190 385 190 336 c 0,16,17
 190 221 190 221 223.5 164 c 128,-1,18
 257 107 257 107 316 107 c 0,19,12
 365 107 365 107 395 143 c 1,13,-1
442 336 m 0,21,22
 442 422 442 422 413.5 492 c 128,-1,23
 385 562 385 562 316 562 c 0,24,25
 271 562 271 562 241 527 c 1,26,-1
 435 247 l 1,27,20
 442 283 442 283 442 336 c 0,21,22
EndSplineSet
Substitution2: "'zero' Slashed Zero in Latin lookup 10 subtable" zero.zero
AlternateSubs2: "'aalt' Access All Alternates in Latin lookup 0 subtable" zero.zero
EndChar
StartChar: one
Encoding: 49 49 230
Width: 632
GlyphClass: 5
Flags: W
LayerCount: 2
Fore
SplineSet
100 132 m 1,0,-1
 248 132 l 1,1,-1
 248 438 l 1,2,-1
 100 438 l 1,3,-1
 100 571 l 1,4,5
 160 571 160 571 191 576.5 c 128,-1,6
 222 582 222 582 244 602.5 c 128,-1,7
 266 623 266 623 284 668 c 1,8,-1
 410 668 l 1,9,-1
 410 132 l 1,10,-1
 532 132 l 1,11,-1
 532 0 l 1,12,-1
 100 0 l 1,13,-1
 100 132 l 1,0,-1
EndSplineSet
Substitution2: "'sups' Superscript in Latin lookup 6 subtable" uni00B9
AlternateSubs2: "'aalt' Access All Alternates in Latin lookup 0 subtable" uni00B9
EndChar
StartChar: five
Encoding: 53 53 234
Width: 632
GlyphClass: 1
Flags: W
LayerCount: 2
Fore
SplineSet
156 26 m 128,-1,1
 87 64 87 64 54 137 c 1,2,-1
 195 189 l 1,3,4
 208 145 208 145 237.5 126.5 c 128,-1,5
 267 108 267 108 303 108 c 0,6,7
 355 108 355 108 387 137.5 c 128,-1,8
 419 167 419 167 419 221 c 0,9,10
 419 276 419 276 386.5 305.5 c 128,-1,11
 354 335 354 335 306 335 c 0,12,13
 236 335 236 335 200 271 c 1,14,-1
 56 326 l 1,15,-1
 98 668 l 1,16,-1
 556 668 l 1,17,-1
 556 537 l 1,18,-1
 234 537 l 1,19,-1
 220 423 l 1,20,21
 243 437 243 437 280 446 c 128,-1,22
 317 455 317 455 351 455 c 0,23,24
 413 455 413 455 467.5 428.5 c 128,-1,25
 522 402 522 402 555 349 c 128,-1,26
 588 296 588 296 588 221 c 0,27,28
 588 147 588 147 550.5 94.5 c 128,-1,29
 513 42 513 42 450.5 15 c 128,-1,30
 388 -12 388 -12 312 -12 c 0,31,0
 225 -12 225 -12 156 26 c 128,-1,1
EndSplineSet
EndChar
StartChar: eight
Encoding: 56 56 237
Width: 632
GlyphClass: 1
Flags: W
LayerCount: 2
Fore
SplineSet
171.5 14 m 128,-1,1
 108 40 108 40 72 90 c 128,-1,2
 36 140 36 140 36 210 c 0,3,4
 36 267 36 267 66 310.5 c 128,-1,5
 96 354 96 354 151 380 c 1,6,7
 121 425 121 425 121 485 c 0,8,9
 121 538 121 538 145.5 583 c 128,-1,10
 170 628 170 628 214.5 654 c 128,-1,11
 259 680 259 680 316 680 c 256,12,13
 373 680 373 680 417 654 c 128,-1,14
 461 628 461 628 485.5 583.5 c 128,-1,15
 510 539 510 539 510 485 c 0,16,17
 510 426 510 426 481 380 c 1,18,19
 535 354 535 354 565 310 c 128,-1,20
 595 266 595 266 595 209 c 0,21,22
 595 139 595 139 559 89.5 c 128,-1,23
 523 40 523 40 459.5 14 c 128,-1,24
 396 -12 396 -12 316 -12 c 0,25,0
 235 -12 235 -12 171.5 14 c 128,-1,1
395.5 147 m 128,-1,27
 427 171 427 171 427 209 c 256,28,29
 427 247 427 247 396 268 c 128,-1,30
 365 289 365 289 316 289 c 0,31,32
 266 289 266 289 235 268 c 128,-1,33
 204 247 204 247 204 209 c 256,34,35
 204 171 204 171 235.5 147 c 128,-1,36
 267 123 267 123 316 123 c 0,37,26
 364 123 364 123 395.5 147 c 128,-1,27
359.5 439 m 128,-1,39
 377 457 377 457 377 484 c 256,40,41
 377 511 377 511 359.5 529 c 128,-1,42
 342 547 342 547 316 547 c 256,43,44
 290 547 290 547 271.5 529 c 128,-1,45
 253 511 253 511 253 484 c 256,46,47
 253 457 253 457 271.5 439 c 128,-1,48
 290 421 290 421 316 421 c 256,49,38
 342 421 342 421 359.5 439 c 128,-1,39
EndSplineSet
EndChar
StartChar: B
Encoding: 66 66 13
Width: 632
GlyphClass: 2
Flags: W
AnchorPoint: "Anchor-1" 328 668 basechar 0
AnchorPoint: "Anchor-0" 328 0 basechar 0
LayerCount: 2
Fore
SplineSet
66 668 m 1,0,-1
 337 668 l 2,1,2
 451 668 451 668 512 625 c 128,-1,3
 573 582 573 582 573 495 c 0,4,5
 573 400 573 400 488 355 c 1,6,7
 535 338 535 338 566.5 299.5 c 128,-1,8
 598 261 598 261 598 198 c 0,9,10
 598 96 598 96 530.5 48 c 128,-1,11
 463 0 463 0 346 0 c 2,12,-1
 66 0 l 1,13,-1
 66 668 l 1,0,-1
415 152 m 128,-1,15
 439 171 439 171 439 206 c 0,16,17
 439 239 439 239 415 257 c 128,-1,18
 391 275 391 275 347 275 c 2,19,-1
 221 275 l 1,20,-1
 221 133 l 1,21,-1
 347 133 l 2,22,14
 391 133 391 133 415 152 c 128,-1,15
395.5 426.5 m 128,-1,24
 417 444 417 444 417 473 c 0,25,26
 417 501 417 501 396.5 518 c 128,-1,27
 376 535 376 535 341 535 c 2,28,-1
 221 535 l 1,29,-1
 221 409 l 1,30,-1
 339 409 l 2,31,23
 374 409 374 409 395.5 426.5 c 128,-1,24
EndSplineSet
EndChar
StartChar: C
Encoding: 67 67 14
Width: 632
GlyphClass: 2
Flags: W
AnchorPoint: "Anchor-1" 339 668 basechar 0
AnchorPoint: "Anchor-0" 339 0 basechar 0
LayerCount: 2
Fore
SplineSet
186 29.5 m 128,-1,1
 121 71 121 71 86.5 149 c 128,-1,2
 52 227 52 227 52 334 c 0,3,4
 52 439 52 439 87.5 517 c 128,-1,5
 123 595 123 595 188 637.5 c 128,-1,6
 253 680 253 680 340 680 c 0,7,8
 421 680 421 680 482.5 637.5 c 128,-1,9
 544 595 544 595 577 520 c 1,10,-1
 445 471 l 1,11,12
 415 546 415 546 344 546 c 0,13,14
 287 546 287 546 251.5 489 c 128,-1,15
 216 432 216 432 216 334 c 0,16,17
 216 233 216 233 253 177.5 c 128,-1,18
 290 122 290 122 349 122 c 0,19,20
 378 122 378 122 406.5 138.5 c 128,-1,21
 435 155 435 155 452 196 c 1,22,-1
 580 148 l 1,23,24
 545 73 545 73 482.5 30.5 c 128,-1,25
 420 -12 420 -12 339 -12 c 0,26,0
 251 -12 251 -12 186 29.5 c 128,-1,1
EndSplineSet
EndChar
StartChar: D
Encoding: 68 68 19
Width: 632
GlyphClass: 2
Flags: W
AnchorPoint: "Anchor-1" 307 668 basechar 0
AnchorPoint: "Anchor-0" 325 0 basechar 0
LayerCount: 2
Fore
SplineSet
62 668 m 1,0,-1
 258 668 l 2,1,2
 414 668 414 668 505.5 590.5 c 128,-1,3
 597 513 597 513 597 334 c 256,4,5
 597 155 597 155 505.5 77.5 c 128,-1,6
 414 0 414 0 258 0 c 2,7,-1
 62 0 l 1,8,-1
 62 668 l 1,0,-1
349.5 151.5 m 128,-1,10
 389 166 389 166 413.5 209.5 c 128,-1,11
 438 253 438 253 438 334 c 256,12,13
 438 415 438 415 413.5 459 c 128,-1,14
 389 503 389 503 349 518 c 128,-1,15
 309 533 309 533 254 533 c 2,16,-1
 216 533 l 1,17,-1
 216 137 l 1,18,-1
 254 137 l 2,19,9
 310 137 310 137 349.5 151.5 c 128,-1,10
EndSplineSet
EndChar
StartChar: F
Encoding: 70 70 32
Width: 632
GlyphClass: 2
Flags: W
AnchorPoint: "Anchor-1" 312 668 basechar 0
AnchorPoint: "Anchor-0" 312 0 basechar 0
LayerCount: 2
Fore
SplineSet
93 668 m 1,0,-1
 565 668 l 1,1,-1
 565 519 l 1,2,-1
 262 519 l 1,3,-1
 262 383 l 1,4,-1
 561 383 l 1,5,-1
 561 234 l 1,6,-1
 262 234 l 1,7,-1
 262 0 l 1,8,-1
 93 0 l 1,9,-1
 93 668 l 1,0,-1
EndSplineSet
EndChar
StartChar: J
Encoding: 74 74 48
Width: 632
GlyphClass: 2
Flags: W
AnchorPoint: "Anchor-1" 483 668 basechar 0
AnchorPoint: "Anchor-0" 310 0 basechar 0
LayerCount: 2
Fore
SplineSet
106.5 37 m 128,-1,1
 40 86 40 86 15 172 c 1,2,-1
 170 231 l 1,3,4
 184 179 184 179 211.5 150 c 128,-1,5
 239 121 239 121 287 121 c 0,6,7
 346 121 346 121 372 153.5 c 128,-1,8
 398 186 398 186 398 263 c 2,9,-1
 398 668 l 1,10,-1
 567 668 l 1,11,-1
 567 263 l 2,12,13
 567 133 567 133 496 60.5 c 128,-1,14
 425 -12 425 -12 285 -12 c 0,15,0
 173 -12 173 -12 106.5 37 c 128,-1,1
EndSplineSet
Substitution2: "Single Substitution lookup 13 subtable" uni004A0301
AlternateSubs2: "'aalt' Access All Alternates in Latin lookup 0 subtable" uni004A0301
EndChar
StartChar: K
Encoding: 75 75 50
Width: 632
GlyphClass: 2
Flags: W
AnchorPoint: "Anchor-1" 325 668 basechar 0
AnchorPoint: "Anchor-0" 310 0 basechar 0
LayerCount: 2
Fore
SplineSet
57 668 m 1,0,-1
 211 668 l 1,1,-1
 211 408 l 1,2,-1
 427 668 l 1,3,-1
 608 668 l 1,4,-1
 370 385 l 1,5,-1
 617 0 l 1,6,-1
 432 0 l 1,7,-1
 268 262 l 1,8,-1
 211 195 l 1,9,-1
 211 0 l 1,10,-1
 57 0 l 1,11,-1
 57 668 l 1,0,-1
EndSplineSet
EndChar
StartChar: M
Encoding: 77 77 56
Width: 632
GlyphClass: 2
Flags: W
AnchorPoint: "Anchor-1" 316 668 basechar 0
AnchorPoint: "Anchor-0" 316 0 basechar 0
LayerCount: 2
Fore
SplineSet
35 668 m 1,0,-1
 237 668 l 1,1,-1
 317 211 l 1,2,-1
 321 211 l 1,3,-1
 403 668 l 1,4,-1
 597 668 l 1,5,-1
 597 0 l 1,6,-1
 473 0 l 1,7,-1
 473 503 l 1,8,-1
 469 503 l 1,9,-1
 376 0 l 1,10,-1
 253 0 l 1,11,-1
 161 503 l 1,12,-1
 157 503 l 1,13,-1
 157 0 l 1,14,-1
 35 0 l 1,15,-1
 35 668 l 1,0,-1
EndSplineSet
EndChar
StartChar: Q
Encoding: 81 81 73
Width: 632
GlyphClass: 1
Flags: W
LayerCount: 2
Fore
SplineSet
167 30 m 128,-1,1
 104 72 104 72 70 150 c 128,-1,2
 36 228 36 228 36 334 c 256,3,4
 36 440 36 440 70 518 c 128,-1,5
 104 596 104 596 167 638 c 128,-1,6
 230 680 230 680 316 680 c 256,7,8
 402 680 402 680 465 638 c 128,-1,9
 528 596 528 596 562 518 c 128,-1,10
 596 440 596 440 596 334 c 0,11,12
 596 227 596 227 560 146 c 1,13,-1
 632 78 l 1,14,-1
 545 -15 l 1,15,-1
 483 43 l 1,16,17
 416 -12 416 -12 316 -12 c 0,18,0
 230 -12 230 -12 167 30 c 128,-1,1
377 145 m 1,20,-1
 270 245 l 1,21,-1
 357 336 l 1,22,-1
 428 269 l 1,23,24
 432 294 432 294 432 334 c 0,25,26
 432 437 432 437 401 491.5 c 128,-1,27
 370 546 370 546 316 546 c 256,28,29
 262 546 262 546 231 491.5 c 128,-1,30
 200 437 200 437 200 334 c 256,31,32
 200 231 200 231 231 176.5 c 128,-1,33
 262 122 262 122 316 122 c 0,34,19
 353 122 353 122 377 145 c 1,20,-1
EndSplineSet
EndChar
StartChar: T
Encoding: 84 84 83
Width: 632
GlyphClass: 2
Flags: W
AnchorPoint: "Anchor-1" 316 668 basechar 0
AnchorPoint: "Anchor-0" 316 0 basechar 0
LayerCount: 2
Fore
SplineSet
232 519 m 1,0,-1
 49 519 l 1,1,-1
 49 668 l 1,2,-1
 583 668 l 1,3,-1
 583 519 l 1,4,-1
 400 519 l 1,5,-1
 400 0 l 1,6,-1
 232 0 l 1,7,-1
 232 519 l 1,0,-1
EndSplineSet
EndChar
StartChar: W
Encoding: 87 87 97
Width: 632
GlyphClass: 2
Flags: W
AnchorPoint: "Anchor-1" 316 668 basechar 0
AnchorPoint: "Anchor-0" 317 0 basechar 0
LayerCount: 2
Fore
SplineSet
7 668 m 1,0,-1
 135 668 l 1,1,-1
 183 209 l 1,2,-1
 187 209 l 1,3,-1
 244 668 l 1,4,-1
 388 668 l 1,5,-1
 446 209 l 1,6,-1
 450 209 l 1,7,-1
 497 668 l 1,8,-1
 625 668 l 1,9,-1
 522 0 l 1,10,-1
 375 0 l 1,11,-1
 318 469 l 1,12,-1
 314 469 l 1,13,-1
 258 0 l 1,14,-1
 111 0 l 1,15,-1
 7 668 l 1,0,-1
EndSplineSet
EndChar
StartChar: X
Encoding: 88 88 102
Width: 632
GlyphClass: 2
Flags: W
AnchorPoint: "Anchor-1" 317 668 basechar 0
AnchorPoint: "Anchor-0" 317 0 basechar 0
LayerCount: 2
Fore
SplineSet
229 343 m 1,0,-1
 29 668 l 1,1,-1
 204 668 l 1,2,-1
 314 484 l 1,3,-1
 318 484 l 1,4,-1
 429 668 l 1,5,-1
 604 668 l 1,6,-1
 404 343 l 1,7,-1
 616 0 l 1,8,-1
 441 0 l 1,9,-1
 318 204 l 1,10,-1
 314 204 l 1,11,-1
 192 0 l 1,12,-1
 17 0 l 1,13,-1
 229 343 l 1,0,-1
EndSplineSet
EndChar
StartChar: Z
Encoding: 90 90 108
Width: 632
GlyphClass: 2
Flags: W
AnchorPoint: "Anchor-1" 317 668 basechar 0
AnchorPoint: "Anchor-0" 317 0 basechar 0
LayerCount: 2
Fore
SplineSet
48 127 m 1,0,-1
 357 519 l 1,1,-1
 63 519 l 1,2,-1
 63 668 l 1,3,-1
 571 668 l 1,4,-1
 571 541 l 1,5,-1
 266 149 l 1,6,-1
 586 149 l 1,7,-1
 586 0 l 1,8,-1
 48 0 l 1,9,-1
 48 127 l 1,0,-1
EndSplineSet
EndChar
StartChar: bracketleft
Encoding: 91 91 272
Width: 632
GlyphClass: 1
Flags: W
LayerCount: 2
Fore
SplineSet
164 708 m 1,0,-1
 489 708 l 1,1,-1
 489 585 l 1,2,-1
 301 585 l 1,3,-1
 301 -39 l 1,4,-1
 489 -39 l 1,5,-1
 489 -162 l 1,6,-1
 164 -162 l 1,7,-1
 164 708 l 1,0,-1
EndSplineSet
EndChar
StartChar: asciicircum
Encoding: 94 94 325
Width: 632
GlyphClass: 1
Flags: W
LayerCount: 2
Fore
SplineSet
256 668 m 1,0,-1
 376 668 l 1,1,-1
 561 311 l 1,2,-1
 409 311 l 1,3,-1
 317 495 l 1,4,-1
 223 311 l 1,5,-1
 71 311 l 1,6,-1
 256 668 l 1,0,-1
EndSplineSet
EndChar
StartChar: b
Encoding: 98 98 123
Width: 632
GlyphClass: 2
Flags: W
AnchorPoint: "Anchor-1" 315 496 basechar 0
AnchorPoint: "Anchor-0" 315 0 basechar 0
LayerCount: 2
Fore
SplineSet
289.5 7.5 m 128,-1,1
 247 27 247 27 224 66 c 1,2,-1
 206 0 l 1,3,-1
 60 0 l 1,4,-1
 60 708 l 1,5,-1
 224 708 l 1,6,-1
 224 430 l 1,7,8
 247 469 247 469 290 490 c 128,-1,9
 333 511 333 511 374 511 c 0,10,11
 439 511 439 511 489 480 c 128,-1,12
 539 449 539 449 566.5 391 c 128,-1,13
 594 333 594 333 594 253 c 256,14,15
 594 173 594 173 566.5 113 c 128,-1,16
 539 53 539 53 489 20.5 c 128,-1,17
 439 -12 439 -12 374 -12 c 0,18,0
 332 -12 332 -12 289.5 7.5 c 128,-1,1
395 152 m 128,-1,20
 425 190 425 190 425 253 c 0,21,22
 425 315 425 315 395 350.5 c 128,-1,23
 365 386 365 386 321 386 c 0,24,25
 276 386 276 386 246 352 c 128,-1,26
 216 318 216 318 216 250 c 0,27,28
 216 179 216 179 245.5 146.5 c 128,-1,29
 275 114 275 114 321 114 c 0,30,19
 365 114 365 114 395 152 c 128,-1,20
EndSplineSet
EndChar
StartChar: c
Encoding: 99 99 124
Width: 632
GlyphClass: 2
Flags: W
AnchorPoint: "Anchor-1" 351 496 basechar 0
AnchorPoint: "Anchor-0" 341 0 basechar 0
LayerCount: 2
Fore
SplineSet
139 59 m 128,-1,1
 70 130 70 130 70 252 c 0,2,3
 70 329 70 329 104.5 388 c 128,-1,4
 139 447 139 447 200 479 c 128,-1,5
 261 511 261 511 338 511 c 0,6,7
 421 511 421 511 485.5 478 c 128,-1,8
 550 445 550 445 581 378 c 1,9,-1
 445 328 l 1,10,11
 423 386 423 386 351 386 c 0,12,13
 304 386 304 386 270.5 353 c 128,-1,14
 237 320 237 320 237 251 c 0,15,16
 237 179 237 179 271 146 c 128,-1,17
 305 113 305 113 351 113 c 0,18,19
 383 113 383 113 408 125 c 128,-1,20
 433 137 433 137 446 158 c 1,21,-1
 578 110 l 1,22,23
 546 51 546 51 482 19.5 c 128,-1,24
 418 -12 418 -12 340 -12 c 0,25,0
 208 -12 208 -12 139 59 c 128,-1,1
EndSplineSet
EndChar
StartChar: d
Encoding: 100 100 129
Width: 632
GlyphClass: 2
Flags: W
AnchorPoint: "Anchor-3" 579 496 basechar 0
AnchorPoint: "Anchor-1" 317 796 basechar 0
AnchorPoint: "Anchor-0" 317 0 basechar 0
LayerCount: 2
Fore
SplineSet
143 20.5 m 128,-1,1
 93 53 93 53 65.5 113.5 c 128,-1,2
 38 174 38 174 38 253 c 0,3,4
 38 333 38 333 65.5 391 c 128,-1,5
 93 449 93 449 143 480 c 128,-1,6
 193 511 193 511 258 511 c 0,7,8
 299 511 299 511 342 490 c 128,-1,9
 385 469 385 469 408 430 c 1,10,-1
 408 708 l 1,11,-1
 572 708 l 1,12,-1
 572 195 l 2,13,14
 572 85 572 85 589 0 c 1,15,-1
 432 0 l 1,16,-1
 413 63 l 1,17,18
 381 24 381 24 340 6 c 128,-1,19
 299 -12 299 -12 258 -12 c 0,20,0
 193 -12 193 -12 143 20.5 c 128,-1,1
386.5 146.5 m 128,-1,22
 416 179 416 179 416 250 c 0,23,24
 416 319 416 319 386.5 352.5 c 128,-1,25
 357 386 357 386 312 386 c 256,26,27
 267 386 267 386 237 351 c 128,-1,28
 207 316 207 316 207 253 c 256,29,30
 207 190 207 190 237.5 152 c 128,-1,31
 268 114 268 114 312 114 c 0,32,21
 357 114 357 114 386.5 146.5 c 128,-1,22
EndSplineSet
EndChar
StartChar: e
Encoding: 101 101 133
Width: 632
GlyphClass: 2
Flags: W
AnchorPoint: "Anchor-2" 510 10 basechar 0
AnchorPoint: "Anchor-1" 333 496 basechar 0
AnchorPoint: "Anchor-0" 320 0 basechar 0
LayerCount: 2
Fore
SplineSet
189 19 m 128,-1,1
 126 50 126 50 91 110 c 128,-1,2
 56 170 56 170 56 252 c 0,3,4
 56 329 56 329 92.5 388 c 128,-1,5
 129 447 129 447 190.5 479 c 128,-1,6
 252 511 252 511 326 511 c 0,7,8
 402 511 402 511 461 477 c 128,-1,9
 520 443 520 443 552.5 380.5 c 128,-1,10
 585 318 585 318 585 236 c 0,11,12
 585 216 585 216 584 205 c 1,13,-1
 215 205 l 1,14,15
 226 160 226 160 257.5 136.5 c 128,-1,16
 289 113 289 113 334 113 c 0,17,18
 395 113 395 113 425 149 c 1,19,-1
 554 101 l 1,20,21
 517 47 517 47 459 17.5 c 128,-1,22
 401 -12 401 -12 333 -12 c 0,23,0
 252 -12 252 -12 189 19 c 128,-1,1
402.5 368.5 m 128,-1,25
 374 391 374 391 331 391 c 0,26,27
 287 391 287 391 255.5 369 c 128,-1,28
 224 347 224 347 214 301 c 1,29,-1
 435 301 l 1,30,24
 431 346 431 346 402.5 368.5 c 128,-1,25
EndSplineSet
EndChar
StartChar: f
Encoding: 102 102 142
Width: 632
GlyphClass: 2
Flags: W
AnchorPoint: "Anchor-1" 295 796 basechar 0
AnchorPoint: "Anchor-0" 295 0 basechar 0
LayerCount: 2
Fore
SplineSet
214 373 m 1,0,-1
 83 373 l 1,1,-1
 83 496 l 1,2,-1
 214 496 l 1,3,-1
 214 564 l 2,4,5
 214 624 214 624 235 657.5 c 128,-1,6
 256 691 256 691 299.5 704.5 c 128,-1,7
 343 718 343 718 415 718 c 2,8,-1
 602 718 l 1,9,-1
 602 590 l 1,10,-1
 446 590 l 2,11,12
 417 590 417 590 403 587 c 128,-1,13
 389 584 389 584 383.5 575 c 128,-1,14
 378 566 378 566 378 547 c 2,15,-1
 378 496 l 1,16,-1
 498 496 l 1,17,-1
 498 373 l 1,18,-1
 378 373 l 1,19,-1
 378 0 l 1,20,-1
 214 0 l 1,21,-1
 214 373 l 1,0,-1
EndSplineSet
EndChar
StartChar: g
Encoding: 103 103 143
Width: 632
GlyphClass: 2
Flags: W
AnchorPoint: "Anchor-1" 321 496 basechar 0
AnchorPoint: "Anchor-0" 321 -251 basechar 0
LayerCount: 2
Fore
SplineSet
183.5 -179 m 128,-1,1
 123 -153 123 -153 89 -93 c 1,2,-1
 218 -34 l 1,3,4
 249 -82 249 -82 318 -82 c 0,5,6
 357 -82 357 -82 384.5 -61 c 128,-1,7
 412 -40 412 -40 412 9 c 2,8,-1
 412 96 l 1,9,10
 380 58 380 58 338 39 c 128,-1,11
 296 20 296 20 254 20 c 0,12,13
 199 20 199 20 150 49.5 c 128,-1,14
 101 79 101 79 70.5 133.5 c 128,-1,15
 40 188 40 188 40 260 c 0,16,17
 40 343 40 343 70 399.5 c 128,-1,18
 100 456 100 456 147.5 483.5 c 128,-1,19
 195 511 195 511 248 511 c 0,20,21
 296 511 296 511 340 490 c 128,-1,22
 384 469 384 469 412 430 c 1,23,-1
 432 496 l 1,24,-1
 575 496 l 1,25,-1
 575 42 l 2,26,27
 575 -86 575 -86 506.5 -145.5 c 128,-1,28
 438 -205 438 -205 315 -205 c 0,29,0
 244 -205 244 -205 183.5 -179 c 128,-1,1
390 173.5 m 128,-1,31
 419 201 419 201 419 264 c 0,32,33
 419 328 419 328 390 357 c 128,-1,34
 361 386 361 386 314 386 c 0,35,36
 269 386 269 386 239 356.5 c 128,-1,37
 209 327 209 327 209 269 c 0,38,39
 209 209 209 209 239 177.5 c 128,-1,40
 269 146 269 146 314 146 c 0,41,30
 361 146 361 146 390 173.5 c 128,-1,31
EndSplineSet
EndChar
StartChar: h
Encoding: 104 104 147
Width: 632
GlyphClass: 2
Flags: W
AnchorPoint: "Anchor-1" 319 796 basechar 0
AnchorPoint: "Anchor-0" 319 0 basechar 0
LayerCount: 2
Fore
SplineSet
76 708 m 1,0,-1
 240 708 l 1,1,-1
 240 432 l 1,2,3
 258 462 258 462 300 486.5 c 128,-1,4
 342 511 342 511 394 511 c 0,5,6
 483 511 483 511 523 463 c 128,-1,7
 563 415 563 415 563 317 c 2,8,-1
 563 0 l 1,9,-1
 399 0 l 1,10,-1
 399 282 l 2,11,12
 399 335 399 335 381.5 360.5 c 128,-1,13
 364 386 364 386 327 386 c 0,14,15
 282 386 282 386 261 352.5 c 128,-1,16
 240 319 240 319 240 252 c 2,17,-1
 240 0 l 1,18,-1
 76 0 l 1,19,-1
 76 708 l 1,0,-1
EndSplineSet
EndChar
StartChar: m
Encoding: 109 109 167
Width: 632
GlyphClass: 2
Flags: W
AnchorPoint: "Anchor-1" 318 496 basechar 0
AnchorPoint: "Anchor-0" 318 0 basechar 0
LayerCount: 2
Fore
SplineSet
42 496 m 1,0,-1
 152 496 l 1,1,-1
 165 451 l 1,2,3
 183 478 183 478 210 494.5 c 128,-1,4
 237 511 237 511 270 511 c 0,5,6
 338 511 338 511 365 455 c 1,7,8
 383 481 383 481 411 496 c 128,-1,9
 439 511 439 511 474 511 c 0,10,11
 531 511 531 511 561 474.5 c 128,-1,12
 591 438 591 438 591 376 c 2,13,-1
 591 0 l 1,14,-1
 458 0 l 1,15,-1
 458 327 l 2,16,17
 458 386 458 386 424 386 c 0,18,19
 383 386 383 386 383 310 c 2,20,-1
 383 0 l 1,21,-1
 250 0 l 1,22,-1
 250 327 l 2,23,24
 250 386 250 386 216 386 c 0,25,26
 175 386 175 386 175 309 c 2,27,-1
 175 0 l 1,28,-1
 42 0 l 1,29,-1
 42 496 l 1,0,-1
EndSplineSet
EndChar
StartChar: p
Encoding: 112 112 182
Width: 632
GlyphClass: 2
Flags: W
AnchorPoint: "Anchor-1" 315 496 basechar 0
AnchorPoint: "Anchor-0" 315 0 basechar 0
LayerCount: 2
Fore
SplineSet
60 496 m 1,0,-1
 205 496 l 1,1,-1
 224 430 l 1,2,3
 247 469 247 469 290 490 c 128,-1,4
 333 511 333 511 374 511 c 0,5,6
 439 511 439 511 489 479 c 128,-1,7
 539 447 539 447 566.5 387 c 128,-1,8
 594 327 594 327 594 248 c 0,9,10
 594 168 594 168 566.5 109 c 128,-1,11
 539 50 539 50 489 19 c 128,-1,12
 439 -12 439 -12 374 -12 c 0,13,14
 334 -12 334 -12 290.5 9.5 c 128,-1,15
 247 31 247 31 224 70 c 1,16,-1
 224 -162 l 1,17,-1
 60 -162 l 1,18,-1
 60 496 l 1,0,-1
395 149.5 m 128,-1,20
 425 185 425 185 425 248 c 256,21,22
 425 311 425 311 395 348.5 c 128,-1,23
 365 386 365 386 321 386 c 0,24,25
 275 386 275 386 245.5 353.5 c 128,-1,26
 216 321 216 321 216 252 c 0,27,28
 216 182 216 182 246 148 c 128,-1,29
 276 114 276 114 321 114 c 0,30,19
 365 114 365 114 395 149.5 c 128,-1,20
EndSplineSet
EndChar
StartChar: r
Encoding: 114 114 185
Width: 632
GlyphClass: 2
Flags: W
AnchorPoint: "Anchor-1" 330 496 basechar 0
AnchorPoint: "Anchor-0" 193 0 basechar 0
LayerCount: 2
Fore
SplineSet
111 496 m 1,0,-1
 242 496 l 1,1,-1
 268 405 l 1,2,3
 346 511 346 511 488 511 c 0,4,5
 534 511 534 511 580 500 c 1,6,-1
 580 341 l 1,7,8
 525 362 525 362 458 362 c 0,9,10
 369 362 369 362 322 315.5 c 128,-1,11
 275 269 275 269 275 180 c 2,12,-1
 275 0 l 1,13,-1
 111 0 l 1,14,-1
 111 496 l 1,0,-1
EndSplineSet
EndChar
StartChar: v
Encoding: 118 118 207
Width: 632
GlyphClass: 2
Flags: W
AnchorPoint: "Anchor-1" 316 496 basechar 0
AnchorPoint: "Anchor-0" 316 0 basechar 0
LayerCount: 2
Fore
SplineSet
45 496 m 1,0,-1
 214 496 l 1,1,-1
 315 166 l 1,2,-1
 319 166 l 1,3,-1
 420 496 l 1,4,-1
 587 496 l 1,5,-1
 408 0 l 1,6,-1
 223 0 l 1,7,-1
 45 496 l 1,0,-1
EndSplineSet
EndChar
StartChar: w
Encoding: 119 119 208
Width: 632
GlyphClass: 2
Flags: W
AnchorPoint: "Anchor-1" 318 496 basechar 0
AnchorPoint: "Anchor-0" 317 0 basechar 0
LayerCount: 2
Fore
SplineSet
13 496 m 1,0,-1
 144 496 l 1,1,-1
 202 165 l 1,2,-1
 206 165 l 1,3,-1
 252 496 l 1,4,-1
 383 496 l 1,5,-1
 429 165 l 1,6,-1
 433 165 l 1,7,-1
 490 496 l 1,8,-1
 619 496 l 1,9,-1
 519 0 l 1,10,-1
 370 0 l 1,11,-1
 317 326 l 1,12,-1
 313 326 l 1,13,-1
 262 0 l 1,14,-1
 113 0 l 1,15,-1
 13 496 l 1,0,-1
EndSplineSet
EndChar
StartChar: z
Encoding: 122 122 219
Width: 632
GlyphClass: 2
Flags: W
AnchorPoint: "Anchor-1" 327 496 basechar 0
AnchorPoint: "Anchor-0" 316 0 basechar 0
LayerCount: 2
Fore
SplineSet
69 129 m 1,0,-1
 338 367 l 1,1,-1
 85 367 l 1,2,-1
 85 496 l 1,3,-1
 558 496 l 1,4,-1
 558 367 l 1,5,-1
 291 129 l 1,6,-1
 573 129 l 1,7,-1
 573 0 l 1,8,-1
 69 0 l 1,9,-1
 69 129 l 1,0,-1
EndSplineSet
EndChar
StartChar: braceright
Encoding: 125 125 271
Width: 632
GlyphClass: 1
Flags: W
LayerCount: 2
Fore
SplineSet
130 -34 m 1,0,-1
 233 -34 l 2,1,2
 266 -34 266 -34 277.5 -25 c 128,-1,3
 289 -16 289 -16 289 10 c 2,4,-1
 289 135 l 2,5,6
 289 193 289 193 311 222.5 c 128,-1,7
 333 252 333 252 387 270 c 1,8,-1
 387 276 l 1,9,10
 333 294 333 294 311 323.5 c 128,-1,11
 289 353 289 353 289 411 c 2,12,-1
 289 536 l 2,13,14
 289 562 289 562 277.5 571 c 128,-1,15
 266 580 266 580 233 580 c 2,16,-1
 130 580 l 1,17,-1
 130 708 l 1,18,-1
 263 708 l 2,19,20
 359 708 359 708 401.5 668 c 128,-1,21
 444 628 444 628 444 541 c 2,22,-1
 444 434 l 2,23,24
 444 397 444 397 451.5 377.5 c 128,-1,25
 459 358 459 358 478.5 349.5 c 128,-1,26
 498 341 498 341 535 339 c 1,27,-1
 535 207 l 1,28,29
 498 205 498 205 478.5 196.5 c 128,-1,30
 459 188 459 188 451.5 168.5 c 128,-1,31
 444 149 444 149 444 112 c 2,32,-1
 444 5 l 2,33,34
 444 -82 444 -82 401.5 -122 c 128,-1,35
 359 -162 359 -162 263 -162 c 2,36,-1
 130 -162 l 1,37,-1
 130 -34 l 1,0,-1
EndSplineSet
EndChar
StartChar: asciitilde
Encoding: 126 126 324
Width: 632
GlyphClass: 1
Flags: W
LayerCount: 2
Fore
SplineSet
124 310.5 m 128,-1,1
 153 355 153 355 220 355 c 0,2,3
 248 355 248 355 270.5 346 c 128,-1,4
 293 337 293 337 322 320 c 0,5,6
 348 306 348 306 362.5 300 c 128,-1,7
 377 294 377 294 393 294 c 0,8,9
 415 294 415 294 425.5 313 c 128,-1,10
 436 332 436 332 433 380 c 1,11,-1
 543 340 l 1,12,13
 538 251 538 251 509 206.5 c 128,-1,14
 480 162 480 162 413 162 c 0,15,16
 385 162 385 162 362.5 171 c 128,-1,17
 340 180 340 180 311 197 c 0,18,19
 285 211 285 211 271 217 c 128,-1,20
 257 223 257 223 240 223 c 0,21,22
 218 223 218 223 207.5 204 c 128,-1,23
 197 185 197 185 200 137 c 1,24,-1
 90 177 l 1,25,0
 95 266 95 266 124 310.5 c 128,-1,1
EndSplineSet
EndChar
StartChar: exclamdown
Encoding: 161 161 255
Width: 632
GlyphClass: 1
Flags: W
LayerCount: 2
Fore
SplineSet
227 3 m 1,0,-1
 259 247 l 1,1,-1
 371 247 l 1,2,-1
 403 3 l 1,3,-1
 403 -170 l 1,4,-1
 227 -170 l 1,5,-1
 227 3 l 1,0,-1
242 333.5 m 128,-1,7
 212 364 212 364 212 407 c 0,8,9
 212 449 212 449 242 479.5 c 128,-1,10
 272 510 272 510 315 510 c 256,11,12
 358 510 358 510 388 479.5 c 128,-1,13
 418 449 418 449 418 407 c 0,14,15
 418 364 418 364 388 333.5 c 128,-1,16
 358 303 358 303 315 303 c 256,17,6
 272 303 272 303 242 333.5 c 128,-1,7
EndSplineSet
EndChar
StartChar: yen
Encoding: 165 165 308
Width: 632
GlyphClass: 1
Flags: W
LayerCount: 2
Fore
SplineSet
233 73 m 1,0,-1
 107 73 l 1,1,-1
 107 151 l 1,2,-1
 233 151 l 1,3,-1
 233 210 l 1,4,-1
 107 210 l 1,5,-1
 107 288 l 1,6,-1
 217 288 l 1,7,-1
 4 668 l 1,8,-1
 207 668 l 1,9,-1
 318 429 l 1,10,-1
 322 429 l 1,11,-1
 434 668 l 1,12,-1
 628 668 l 1,13,-1
 415 288 l 1,14,-1
 527 288 l 1,15,-1
 527 210 l 1,16,-1
 400 210 l 1,17,-1
 400 151 l 1,18,-1
 527 151 l 1,19,-1
 527 73 l 1,20,-1
 400 73 l 1,21,-1
 400 0 l 1,22,-1
 233 0 l 1,23,-1
 233 73 l 1,0,-1
EndSplineSet
EndChar
StartChar: section
Encoding: 167 167 291
Width: 632
GlyphClass: 1
Flags: W
LayerCount: 2
Fore
SplineSet
170 -136 m 128,-1,1
 115 -99 115 -99 90 -33 c 1,2,-1
 228 18 l 1,3,4
 245 -48 245 -48 316 -48 c 0,5,6
 346 -48 346 -48 362.5 -36 c 128,-1,7
 379 -24 379 -24 379 -7 c 0,8,9
 379 7 379 7 363.5 20 c 128,-1,10
 348 33 348 33 305 53 c 2,11,-1
 194 106 l 2,12,13
 119 141 119 141 82 184 c 128,-1,14
 45 227 45 227 45 288 c 0,15,16
 45 329 45 329 65 361 c 128,-1,17
 85 393 85 393 124 419 c 1,18,19
 95 458 95 458 95 505 c 0,20,21
 95 556 95 556 124.5 596 c 128,-1,22
 154 636 154 636 206.5 658 c 128,-1,23
 259 680 259 680 326 680 c 0,24,25
 407 680 407 680 462 643 c 128,-1,26
 517 606 517 606 542 540 c 1,27,-1
 404 490 l 1,28,29
 387 555 387 555 316 555 c 0,30,31
 286 555 286 555 270 543 c 128,-1,32
 254 531 254 531 254 514 c 0,33,34
 254 500 254 500 269.5 487 c 128,-1,35
 285 474 285 474 327 454 c 2,36,-1
 438 401 l 2,37,38
 513 366 513 366 550 323 c 128,-1,39
 587 280 587 280 587 219 c 0,40,41
 587 178 587 178 567 146 c 128,-1,42
 547 114 547 114 508 88 c 1,43,44
 537 49 537 49 537 2 c 0,45,46
 537 -49 537 -49 507.5 -89 c 128,-1,47
 478 -129 478 -129 425.5 -151 c 128,-1,48
 373 -173 373 -173 306 -173 c 0,49,0
 225 -173 225 -173 170 -136 c 128,-1,1
429 206 m 0,51,52
 429 225 429 225 415 239 c 128,-1,53
 401 253 401 253 371 267 c 2,54,-1
 224 339 l 1,55,56
 203 322 203 322 203 301 c 0,57,58
 203 282 203 282 217 268 c 128,-1,59
 231 254 231 254 261 240 c 2,60,-1
 408 168 l 1,61,50
 429 185 429 185 429 206 c 0,51,52
EndSplineSet
EndChar
StartChar: ordfeminine
Encoding: 170 170 223
Width: 632
GlyphClass: 1
Flags: W
LayerCount: 2
Fore
SplineSet
177.5 364 m 128,-1,1
 143 393 143 393 143 438 c 0,2,3
 143 480 143 480 166 505.5 c 128,-1,4
 189 531 189 531 238 545 c 128,-1,5
 287 559 287 559 369 566 c 1,6,7
 369 591 369 591 356.5 602 c 128,-1,8
 344 613 344 613 316 613 c 0,9,10
 271 613 271 613 264 583 c 1,11,-1
 165 617 l 1,12,13
 182 654 182 654 224.5 673.5 c 128,-1,14
 267 693 267 693 330 693 c 0,15,16
 406 693 406 693 444 660.5 c 128,-1,17
 482 628 482 628 482 555 c 2,18,-1
 482 481 l 2,19,20
 482 447 482 447 483 410.5 c 128,-1,21
 484 374 484 374 489 343 c 1,22,-1
 391 343 l 1,23,-1
 380 383 l 1,24,25
 350 335 350 335 271 335 c 0,26,0
 212 335 212 335 177.5 364 c 128,-1,1
352 431 m 128,-1,28
 371 447 371 447 371 473 c 2,29,-1
 371 494 l 1,30,31
 261 495 261 495 261 447 c 0,32,33
 261 433 261 433 272 424 c 128,-1,34
 283 415 283 415 304 415 c 0,35,27
 333 415 333 415 352 431 c 128,-1,28
EndSplineSet
EndChar
StartChar: degree
Encoding: 176 176 295
Width: 632
GlyphClass: 1
Flags: W
LayerCount: 2
Fore
SplineSet
232.5 367.5 m 128,-1,1
 194 390 194 390 171.5 428.5 c 128,-1,2
 149 467 149 467 149 512 c 256,3,4
 149 557 149 557 171.5 595.5 c 128,-1,5
 194 634 194 634 232.5 656.5 c 128,-1,6
 271 679 271 679 316 679 c 0,7,8
 362 679 362 679 400 656.5 c 128,-1,9
 438 634 438 634 460.5 595.5 c 128,-1,10
 483 557 483 557 483 512 c 256,11,12
 483 467 483 467 460.5 428.5 c 128,-1,13
 438 390 438 390 400 367.5 c 128,-1,14
 362 345 362 345 316 345 c 0,15,0
 271 345 271 345 232.5 367.5 c 128,-1,1
368 460.5 m 128,-1,17
 389 482 389 482 389 512 c 256,18,19
 389 542 389 542 368 563.5 c 128,-1,20
 347 585 347 585 316 585 c 0,21,22
 286 585 286 585 264.5 563.5 c 128,-1,23
 243 542 243 542 243 512 c 256,24,25
 243 482 243 482 264.5 460.5 c 128,-1,26
 286 439 286 439 316 439 c 0,27,16
 347 439 347 439 368 460.5 c 128,-1,17
EndSplineSet
EndChar
StartChar: uni00B2
Encoding: 178 178 245
Width: 632
GlyphClass: 1
Flags: W
LayerCount: 2
Fore
SplineSet
322 580.5 m 128,-1,1
 370 627 370 627 370 663 c 0,2,3
 370 684 370 684 357 695 c 128,-1,4
 344 706 344 706 321 706 c 256,5,6
 298 706 298 706 281 692.5 c 128,-1,7
 264 679 264 679 260 657 c 1,8,-1
 164 691 l 1,9,10
 180 737 180 737 222 761.5 c 128,-1,11
 264 786 264 786 325 786 c 0,12,13
 395 786 395 786 437 756 c 128,-1,14
 479 726 479 726 479 668 c 0,15,16
 479 611 479 611 437 564.5 c 128,-1,17
 395 518 395 518 301 455 c 1,18,-1
 480 455 l 1,19,-1
 480 364 l 1,20,-1
 152 364 l 1,21,-1
 152 450 l 1,22,0
 274 534 274 534 322 580.5 c 128,-1,1
EndSplineSet
EndChar
StartChar: paragraph
Encoding: 182 182 290
Width: 632
GlyphClass: 1
Flags: W
LayerCount: 2
Fore
SplineSet
109.5 361.5 m 128,-1,1
 65 411 65 411 65 479 c 0,2,3
 65 531 65 531 92 574.5 c 128,-1,4
 119 618 119 618 169 643 c 128,-1,5
 219 668 219 668 284 668 c 2,6,-1
 570 668 l 1,7,-1
 570 601 l 1,8,-1
 522 601 l 1,9,-1
 522 -162 l 1,10,-1
 424 -162 l 1,11,-1
 424 601 l 1,12,-1
 333 601 l 1,13,-1
 333 -162 l 1,14,-1
 235 -162 l 1,15,-1
 235 296 l 1,16,0
 154 312 154 312 109.5 361.5 c 128,-1,1
EndSplineSet
EndChar
StartChar: ordmasculine
Encoding: 186 186 224
Width: 632
GlyphClass: 1
Flags: W
LayerCount: 2
Fore
SplineSet
186 381 m 128,-1,1
 134 427 134 427 134 514 c 0,2,3
 134 602 134 602 186 647.5 c 128,-1,4
 238 693 238 693 317 693 c 256,5,6
 396 693 396 693 447 647.5 c 128,-1,7
 498 602 498 602 498 514 c 0,8,9
 498 427 498 427 447 381 c 128,-1,10
 396 335 396 335 317 335 c 256,11,0
 238 335 238 335 186 381 c 128,-1,1
363.5 447.5 m 128,-1,13
 381 471 381 471 381 514 c 0,14,15
 381 558 381 558 363.5 581.5 c 128,-1,16
 346 605 346 605 317 605 c 256,17,18
 288 605 288 605 269.5 581 c 128,-1,19
 251 557 251 557 251 514 c 256,20,21
 251 471 251 471 269.5 447.5 c 128,-1,22
 288 424 288 424 317 424 c 256,23,12
 346 424 346 424 363.5 447.5 c 128,-1,13
EndSplineSet
EndChar
StartChar: guillemotright
Encoding: 187 187 281
Width: 632
GlyphClass: 1
Flags: W
LayerCount: 2
Fore
SplineSet
420 250 m 1,0,-1
 271 460 l 1,1,-1
 458 460 l 1,2,-1
 606 250 l 1,3,-1
 458 40 l 1,4,-1
 271 40 l 1,5,-1
 420 250 l 1,0,-1
174 250 m 1,6,-1
 25 460 l 1,7,-1
 212 460 l 1,8,-1
 360 250 l 1,9,-1
 212 40 l 1,10,-1
 25 40 l 1,11,-1
 174 250 l 1,6,-1
EndSplineSet
EndChar
StartChar: onequarter
Encoding: 188 188 242
Width: 632
GlyphClass: 3
Flags: W
LayerCount: 2
Fore
SplineSet
104 543 m 1,0,-1
 35 543 l 1,1,-1
 35 635 l 1,2,3
 84 633 84 633 102.5 640 c 128,-1,4
 121 647 121 647 128 668 c 1,5,-1
 204 668 l 1,6,-1
 204 357 l 1,7,-1
 104 357 l 1,8,-1
 104 543 l 1,0,-1
432 668 m 1,9,-1
 552 668 l 1,10,-1
 192 0 l 1,11,-1
 72 0 l 1,12,-1
 432 668 l 1,9,-1
465 57 m 1,13,-1
 310 57 l 1,14,-1
 310 134 l 1,15,-1
 454 311 l 1,16,-1
 557 311 l 1,17,-1
 557 140 l 1,18,-1
 602 140 l 1,19,-1
 602 57 l 1,20,-1
 557 57 l 1,21,-1
 557 0 l 1,22,-1
 465 0 l 1,23,-1
 465 57 l 1,13,-1
466 140 m 1,24,-1
 466 207 l 1,25,-1
 464 207 l 1,26,-1
 412 140 l 1,27,-1
 466 140 l 1,24,-1
EndSplineSet
Ligature2: "'frac' Diagonal Fractions in Latin lookup 7 subtable" one slash four
EndChar
StartChar: onehalf
Encoding: 189 189 241
Width: 632
GlyphClass: 3
Flags: W
LayerCount: 2
Fore
SplineSet
87 543 m 1,0,-1
 18 543 l 1,1,-1
 18 635 l 1,2,3
 67 633 67 633 85.5 640 c 128,-1,4
 104 647 104 647 111 668 c 1,5,-1
 187 668 l 1,6,-1
 187 357 l 1,7,-1
 87 357 l 1,8,-1
 87 543 l 1,0,-1
415 668 m 1,9,-1
 535 668 l 1,10,-1
 175 0 l 1,11,-1
 55 0 l 1,12,-1
 415 668 l 1,9,-1
478.5 164.5 m 128,-1,14
 513 195 513 195 513 216 c 0,15,16
 513 240 513 240 482 240 c 0,17,18
 455 240 455 240 445 214 c 1,19,-1
 359 239 l 1,20,21
 378 279 378 279 409.5 296.5 c 128,-1,22
 441 314 441 314 489 314 c 0,23,24
 545 314 545 314 579 290.5 c 128,-1,25
 613 267 613 267 613 227 c 0,26,27
 613 185 613 185 587 155 c 128,-1,28
 561 125 561 125 502 85 c 1,29,-1
 608 85 l 1,30,-1
 608 0 l 1,31,-1
 350 0 l 1,32,-1
 350 79 l 1,33,13
 444 134 444 134 478.5 164.5 c 128,-1,14
EndSplineSet
Ligature2: "'frac' Diagonal Fractions in Latin lookup 7 subtable" one slash two
EndChar
StartChar: Aring
Encoding: 197 197 10
Width: 632
GlyphClass: 2
Flags: W
AnchorPoint: "Anchor-2" 601 10 basechar 0
AnchorPoint: "Anchor-1" 316 865 basechar 0
AnchorPoint: "Anchor-0" 316 0 basechar 0
LayerCount: 2
Fore
SplineSet
179 729 m 0,1,2
 179 766 179 766 197.5 797.5 c 128,-1,3
 216 829 216 829 247 847 c 128,-1,4
 278 865 278 865 315 865 c 256,5,6
 352 865 352 865 383.5 847 c 128,-1,7
 415 829 415 829 434 797.5 c 128,-1,8
 453 766 453 766 453 729 c 0,9,10
 453 675 453 675 415 635 c 1,11,-1
 601 0 l 1,12,-1
 445 0 l 1,13,-1
 415 114 l 1,14,-1
 209 114 l 1,15,-1
 179 0 l 1,16,-1
 31 0 l 1,17,-1
 217 634 l 1,18,0
 179 674 179 674 179 729 c 0,1,2
379 251 m 1,19,-1
 314 496 l 1,20,-1
 310 496 l 1,21,-1
 245 251 l 1,22,-1
 379 251 l 1,19,-1
349 695.5 m 128,-1,24
 362 709 362 709 362 728 c 0,25,26
 362 748 362 748 349 761 c 128,-1,27
 336 774 336 774 316 774 c 0,28,29
 297 774 297 774 283.5 760.5 c 128,-1,30
 270 747 270 747 270 728 c 256,31,32
 270 709 270 709 283.5 695.5 c 128,-1,33
 297 682 297 682 316 682 c 0,34,23
 336 682 336 682 349 695.5 c 128,-1,24
EndSplineSet
EndChar
StartChar: Eth
Encoding: 208 208 22
Width: 632
GlyphClass: 1
Flags: W
LayerCount: 2
Fore
SplineSet
62 274 m 1,0,-1
 17 274 l 1,1,-1
 17 413 l 1,2,-1
 62 413 l 1,3,-1
 62 668 l 1,4,-1
 258 668 l 2,5,6
 414 668 414 668 505.5 590.5 c 128,-1,7
 597 513 597 513 597 334 c 256,8,9
 597 155 597 155 505.5 77.5 c 128,-1,10
 414 0 414 0 258 0 c 2,11,-1
 62 0 l 1,12,-1
 62 274 l 1,0,-1
349.5 151.5 m 128,-1,14
 389 166 389 166 413.5 209.5 c 128,-1,15
 438 253 438 253 438 334 c 256,16,17
 438 415 438 415 413.5 459 c 128,-1,18
 389 503 389 503 349 518 c 128,-1,19
 309 533 309 533 254 533 c 2,20,-1
 216 533 l 1,21,-1
 216 413 l 1,22,-1
 313 413 l 1,23,-1
 313 274 l 1,24,-1
 216 274 l 1,25,-1
 216 137 l 1,26,-1
 254 137 l 2,27,13
 310 137 310 137 349.5 151.5 c 128,-1,14
EndSplineSet
EndChar
StartChar: multiply
Encoding: 215 215 313
Width: 632
GlyphClass: 1
Flags: W
LayerCount: 2
Fore
SplineSet
88 115 m 1,0,-1
 222 248 l 1,1,-1
 85 381 l 1,2,-1
 182 479 l 1,3,-1
 317 341 l 1,4,-1
 451 479 l 1,5,-1
 548 381 l 1,6,-1
 411 248 l 1,7,-1
 545 115 l 1,8,-1
 447 19 l 1,9,-1
 317 152 l 1,10,-1
 186 19 l 1,11,-1
 88 115 l 1,0,-1
EndSplineSet
EndChar
StartChar: Thorn
Encoding: 222 222 72
Width: 632
GlyphClass: 2
Flags: W
AnchorPoint: "Anchor-1" 325 668 basechar 0
AnchorPoint: "Anchor-0" 325 0 basechar 0
LayerCount: 2
Fore
SplineSet
66 668 m 1,0,-1
 221 668 l 1,1,-1
 221 564 l 1,2,-1
 350 564 l 2,3,4
 421 564 421 564 479.5 540 c 128,-1,5
 538 516 538 516 573 466.5 c 128,-1,6
 608 417 608 417 608 342 c 256,7,8
 608 267 608 267 573 217 c 128,-1,9
 538 167 538 167 479.5 143 c 128,-1,10
 421 119 421 119 350 119 c 2,11,-1
 221 119 l 1,12,-1
 221 0 l 1,13,-1
 66 0 l 1,14,-1
 66 668 l 1,0,-1
420 275 m 128,-1,16
 449 298 449 298 449 342 c 256,17,18
 449 386 449 386 420 408 c 128,-1,19
 391 430 391 430 345 430 c 2,20,-1
 221 430 l 1,21,-1
 221 252 l 1,22,-1
 345 252 l 2,23,15
 391 252 391 252 420 275 c 128,-1,16
EndSplineSet
EndChar
StartChar: germandbls
Encoding: 223 223 193
Width: 632
GlyphClass: 1
Flags: W
LayerCount: 2
Fore
SplineSet
302 -8 m 1,1,-1
 259 133 l 1,2,3
 297 121 297 121 337 121 c 0,4,5
 386 121 386 121 418 142.5 c 128,-1,6
 450 164 450 164 450 212 c 0,7,8
 450 268 450 268 409.5 295.5 c 128,-1,9
 369 323 369 323 302 323 c 2,10,-1
 289 323 l 1,11,-1
 289 450 l 1,12,13
 340 448 340 448 363.5 461.5 c 128,-1,14
 387 475 387 475 387 504 c 0,15,16
 387 530 387 530 367.5 545 c 128,-1,17
 348 560 348 560 307 560 c 0,18,19
 253 560 253 560 233.5 534.5 c 128,-1,20
 214 509 214 509 214 452 c 2,21,-1
 214 0 l 1,22,-1
 50 0 l 1,23,-1
 50 459 l 2,24,25
 50 580 50 580 115 630 c 128,-1,26
 180 680 180 680 303 680 c 0,27,28
 400 680 400 680 461 636 c 128,-1,29
 522 592 522 592 522 509 c 0,30,31
 522 475 522 475 509 447 c 128,-1,32
 496 419 496 419 480 401 c 1,33,34
 540 384 540 384 578.5 331.5 c 128,-1,35
 617 279 617 279 617 208 c 0,36,37
 617 95 617 95 548.5 41 c 128,-1,38
 480 -13 480 -13 369 -13 c 0,39,0
 340 -13 340 -13 302 -8 c 1,1,-1
EndSplineSet
EndChar
StartChar: ae
Encoding: 230 230 122
Width: 632
GlyphClass: 2
Flags: W
AnchorPoint: "Anchor-1" 315 496 basechar 0
AnchorPoint: "Anchor-0" 315 0 basechar 0
LayerCount: 2
Fore
SplineSet
54.5 28 m 128,-1,1
 16 68 16 68 16 135 c 0,2,3
 16 215 16 215 73.5 253.5 c 128,-1,4
 131 292 131 292 251 297 c 1,5,-1
 251 328 l 2,6,7
 251 402 251 402 196 402 c 0,8,9
 174 402 174 402 158 388 c 128,-1,10
 142 374 142 374 135 346 c 1,11,-1
 38 396 l 1,12,13
 57 447 57 447 100 479 c 128,-1,14
 143 511 143 511 204 511 c 0,15,16
 247 511 247 511 276.5 497 c 128,-1,17
 306 483 306 483 324 452 c 1,18,19
 366 511 366 511 445 511 c 0,20,21
 528 511 528 511 574.5 437.5 c 128,-1,22
 621 364 621 364 621 240 c 0,23,24
 621 218 621 218 620 207 c 1,25,-1
 354 207 l 1,26,27
 359 153 359 153 380.5 123.5 c 128,-1,28
 402 94 402 94 437 94 c 0,29,30
 461 94 461 94 479 106.5 c 128,-1,31
 497 119 497 119 506 140 c 1,32,-1
 602 104 l 1,33,34
 572 47 572 47 527.5 17.5 c 128,-1,35
 483 -12 483 -12 435 -12 c 0,36,37
 338 -12 338 -12 290 65 c 1,38,39
 247 -12 247 -12 155 -12 c 0,40,0
 93 -12 93 -12 54.5 28 c 128,-1,1
251 202 m 2,42,-1
 251 207 l 1,43,44
 182 204 182 204 156 190 c 128,-1,45
 130 176 130 176 130 145 c 0,46,47
 130 122 130 122 143.5 108 c 128,-1,48
 157 94 157 94 180 94 c 0,49,41
 250 94 250 94 251 202 c 2,42,-1
480.5 374 m 128,-1,51
 463 400 463 400 432 400 c 0,52,53
 402 400 402 400 382 374 c 128,-1,54
 362 348 362 348 355 297 c 1,55,-1
 499 297 l 1,56,50
 498 348 498 348 480.5 374 c 128,-1,51
EndSplineSet
EndChar
StartChar: eth
Encoding: 240 240 132
Width: 632
GlyphClass: 1
Flags: W
LayerCount: 2
Fore
SplineSet
169.5 16 m 128,-1,1
 111 44 111 44 78 96.5 c 128,-1,2
 45 149 45 149 45 220 c 0,3,4
 45 286 45 286 78 339.5 c 128,-1,5
 111 393 111 393 166 423 c 128,-1,6
 221 453 221 453 286 453 c 0,7,8
 359 453 359 453 414 412 c 1,9,10
 414 495 414 495 354 547 c 1,11,-1
 293 485 l 1,12,-1
 243 535 l 1,13,-1
 293 584 l 1,14,15
 243 605 243 605 184 605 c 1,16,-1
 184 735 l 1,17,18
 309 735 309 735 393 686 c 1,19,-1
 451 744 l 1,20,-1
 501 694 l 1,21,-1
 452 646 l 1,22,23
 509 604 509 604 546.5 518.5 c 128,-1,24
 584 433 584 433 584 321 c 0,25,26
 584 170 584 170 514 79 c 128,-1,27
 444 -12 444 -12 302 -12 c 0,28,0
 228 -12 228 -12 169.5 16 c 128,-1,1
386 139 m 128,-1,30
 413 170 413 170 413 221 c 0,31,32
 413 271 413 271 386 302 c 128,-1,33
 359 333 359 333 314 333 c 0,34,35
 267 333 267 333 240.5 302 c 128,-1,36
 214 271 214 271 214 221 c 0,37,38
 214 169 214 169 240.5 138.5 c 128,-1,39
 267 108 267 108 314 108 c 0,40,29
 359 108 359 108 386 139 c 128,-1,30
EndSplineSet
EndChar
StartChar: divide
Encoding: 247 247 314
Width: 632
GlyphClass: 1
Flags: W
LayerCount: 2
Fore
SplineSet
58 317 m 1,0,-1
 574 317 l 1,1,-1
 574 179 l 1,2,-1
 58 179 l 1,3,-1
 58 317 l 1,0,-1
259 7.5 m 128,-1,5
 235 32 235 32 235 66 c 0,6,7
 235 99 235 99 259 123.5 c 128,-1,8
 283 148 283 148 316 148 c 0,9,10
 350 148 350 148 374 123.5 c 128,-1,11
 398 99 398 99 398 66 c 0,12,13
 398 32 398 32 374 7.5 c 128,-1,14
 350 -17 350 -17 316 -17 c 0,15,4
 283 -17 283 -17 259 7.5 c 128,-1,5
259 372.5 m 128,-1,17
 235 397 235 397 235 431 c 256,18,19
 235 465 235 465 259 489 c 128,-1,20
 283 513 283 513 316 513 c 0,21,22
 350 513 350 513 374 489 c 128,-1,23
 398 465 398 465 398 431 c 256,24,25
 398 397 398 397 374 372.5 c 128,-1,26
 350 348 350 348 316 348 c 0,27,16
 283 348 283 348 259 372.5 c 128,-1,17
EndSplineSet
EndChar
StartChar: dcroat
Encoding: 273 273 131
Width: 632
GlyphClass: 1
Flags: W
LayerCount: 2
Fore
SplineSet
143 20.5 m 128,-1,1
 93 53 93 53 65.5 113.5 c 128,-1,2
 38 174 38 174 38 253 c 0,3,4
 38 333 38 333 65.5 391 c 128,-1,5
 93 449 93 449 143 480 c 128,-1,6
 193 511 193 511 258 511 c 0,7,8
 299 511 299 511 342 490 c 128,-1,9
 385 469 385 469 408 430 c 1,10,-1
 408 544 l 1,11,-1
 271 544 l 1,12,-1
 271 624 l 1,13,-1
 408 624 l 1,14,-1
 408 708 l 1,15,-1
 572 708 l 1,16,-1
 572 624 l 1,17,-1
 627 624 l 1,18,-1
 627 544 l 1,19,-1
 572 544 l 1,20,-1
 572 195 l 2,21,22
 572 85 572 85 589 0 c 1,23,-1
 432 0 l 1,24,-1
 413 63 l 1,25,26
 381 24 381 24 340 6 c 128,-1,27
 299 -12 299 -12 258 -12 c 0,28,0
 193 -12 193 -12 143 20.5 c 128,-1,1
386.5 146.5 m 128,-1,30
 416 179 416 179 416 250 c 0,31,32
 416 319 416 319 386.5 352.5 c 128,-1,33
 357 386 357 386 312 386 c 256,34,35
 267 386 267 386 237 351 c 128,-1,36
 207 316 207 316 207 253 c 256,37,38
 207 190 207 190 237.5 152 c 128,-1,39
 268 114 268 114 312 114 c 0,40,29
 357 114 357 114 386.5 146.5 c 128,-1,30
EndSplineSet
EndChar
StartChar: Eogonek
Encoding: 280 280 31
Width: 632
GlyphClass: 2
Flags: W
AnchorPoint: "Anchor-1" 291 668 basechar 0
LayerCount: 2
Fore
SplineSet
88 668 m 1,0,-1
 561 668 l 1,1,-1
 561 519 l 1,2,-1
 257 519 l 1,3,-1
 257 418 l 1,4,-1
 431 418 l 1,5,-1
 431 269 l 1,6,-1
 257 269 l 1,7,-1
 257 149 l 1,8,-1
 565 149 l 1,9,-1
 565 0 l 1,10,11
 535 -2 535 -2 502 -21.5 c 128,-1,12
 469 -41 469 -41 469 -64 c 0,13,14
 469 -79 469 -79 481 -87 c 128,-1,15
 493 -95 493 -95 511 -95 c 0,16,17
 534 -95 534 -95 565 -86 c 1,18,-1
 565 -167 l 1,19,20
 554 -170 554 -170 528 -173 c 128,-1,21
 502 -176 502 -176 483 -176 c 0,22,23
 402 -176 402 -176 367.5 -147.5 c 128,-1,24
 333 -119 333 -119 333 -84 c 0,25,26
 333 -56 333 -56 351 -35 c 128,-1,27
 369 -14 369 -14 398 0 c 1,28,-1
 88 0 l 1,29,-1
 88 668 l 1,0,-1
EndSplineSet
EndChar
StartChar: eogonek
Encoding: 281 281 141
Width: 632
GlyphClass: 2
Flags: W
AnchorPoint: "Anchor-1" 261 496 basechar 0
LayerCount: 2
Fore
SplineSet
312.5 -147.5 m 128,-1,1
 278 -119 278 -119 278 -81 c 0,2,3
 278 -41 278 -41 308 -11 c 1,4,5
 194 -3 194 -3 125 66 c 128,-1,6
 56 135 56 135 56 252 c 0,7,8
 56 329 56 329 92.5 388 c 128,-1,9
 129 447 129 447 190.5 479 c 128,-1,10
 252 511 252 511 326 511 c 0,11,12
 402 511 402 511 461 477 c 128,-1,13
 520 443 520 443 552.5 380.5 c 128,-1,14
 585 318 585 318 585 236 c 0,15,16
 585 216 585 216 584 205 c 1,17,-1
 215 205 l 1,18,19
 226 160 226 160 257.5 136.5 c 128,-1,20
 289 113 289 113 334 113 c 0,21,22
 395 113 395 113 425 149 c 1,23,-1
 554 101 l 1,24,25
 525 58 525 58 469 22 c 0,26,27
 413 -15 413 -15 413 -56 c 0,28,29
 413 -76 413 -76 426 -85.5 c 128,-1,30
 439 -95 439 -95 459 -95 c 0,31,32
 481 -95 481 -95 510 -86 c 1,33,-1
 510 -166 l 1,34,35
 500 -170 500 -170 474 -173 c 128,-1,36
 448 -176 448 -176 428 -176 c 0,37,0
 347 -176 347 -176 312.5 -147.5 c 128,-1,1
402.5 368.5 m 128,-1,39
 374 391 374 391 331 391 c 0,40,41
 287 391 287 391 255.5 369 c 128,-1,42
 224 347 224 347 214 301 c 1,43,-1
 435 301 l 1,44,38
 431 346 431 346 402.5 368.5 c 128,-1,39
EndSplineSet
EndChar
StartChar: Hbar
Encoding: 294 294 38
Width: 632
GlyphClass: 1
Flags: W
LayerCount: 2
Fore
SplineSet
51 498 m 1,0,-1
 6 498 l 1,1,-1
 6 594 l 1,2,-1
 51 594 l 1,3,-1
 51 668 l 1,4,-1
 220 668 l 1,5,-1
 220 594 l 1,6,-1
 412 594 l 1,7,-1
 412 668 l 1,8,-1
 581 668 l 1,9,-1
 581 594 l 1,10,-1
 626 594 l 1,11,-1
 626 498 l 1,12,-1
 581 498 l 1,13,-1
 581 0 l 1,14,-1
 412 0 l 1,15,-1
 412 268 l 1,16,-1
 220 268 l 1,17,-1
 220 0 l 1,18,-1
 51 0 l 1,19,-1
 51 498 l 1,0,-1
412 418 m 1,20,-1
 412 498 l 1,21,-1
 220 498 l 1,22,-1
 220 418 l 1,23,-1
 412 418 l 1,20,-1
EndSplineSet
EndChar
StartChar: dotlessi
Encoding: 305 305 150
Width: 632
GlyphClass: 2
Flags: W
AnchorPoint: "Anchor-2" 587 10 basechar 0
AnchorPoint: "Anchor-1" 334 496 basechar 0
AnchorPoint: "Anchor-0" 294 0 basechar 0
LayerCount: 2
Fore
SplineSet
99 123 m 1,0,-1
 261 123 l 1,1,-1
 261 373 l 1,2,-1
 125 373 l 1,3,-1
 125 496 l 1,4,-1
 425 496 l 1,5,-1
 425 123 l 1,6,-1
 587 123 l 1,7,-1
 587 0 l 1,8,-1
 99 0 l 1,9,-1
 99 123 l 1,0,-1
EndSplineSet
EndChar
StartChar: OE
Encoding: 338 338 70
Width: 632
GlyphClass: 2
Flags: W
AnchorPoint: "Anchor-1" 318 668 basechar 0
AnchorPoint: "Anchor-0" 318 0 basechar 0
LayerCount: 2
Fore
SplineSet
59.5 79 m 128,-1,1
 5 170 5 170 5 334 c 256,2,3
 5 498 5 498 59.5 589 c 128,-1,4
 114 680 114 680 210 680 c 0,5,6
 271 680 271 680 317 636 c 1,7,-1
 317 668 l 1,8,-1
 629 668 l 1,9,-1
 629 539 l 1,10,-1
 439 539 l 1,11,-1
 439 408 l 1,12,-1
 536 408 l 1,13,-1
 536 279 l 1,14,-1
 439 279 l 1,15,-1
 439 129 l 1,16,-1
 631 129 l 1,17,-1
 631 0 l 1,18,-1
 317 0 l 1,19,-1
 317 32 l 1,20,21
 271 -12 271 -12 210 -12 c 0,22,0
 114 -12 114 -12 59.5 79 c 128,-1,1
293.5 158.5 m 128,-1,24
 317 210 317 210 317 335 c 0,25,26
 317 459 317 459 293.5 510 c 128,-1,27
 270 561 270 561 229 561 c 256,28,29
 188 561 188 561 164.5 510 c 128,-1,30
 141 459 141 459 141 335 c 0,31,32
 141 210 141 210 164.5 158.5 c 128,-1,33
 188 107 188 107 229 107 c 256,34,23
 270 107 270 107 293.5 158.5 c 128,-1,24
EndSplineSet
EndChar
StartChar: oe
Encoding: 339 339 181
Width: 632
GlyphClass: 2
Flags: W
AnchorPoint: "Anchor-1" 321 496 basechar 0
AnchorPoint: "Anchor-0" 321 0 basechar 0
LayerCount: 2
Fore
SplineSet
313 55 m 1,1,2
 268 -12 268 -12 193 -12 c 0,3,4
 115 -12 115 -12 66.5 55 c 128,-1,5
 18 122 18 122 18 251 c 256,6,7
 18 380 18 380 66.5 445.5 c 128,-1,8
 115 511 115 511 193 511 c 0,9,10
 232 511 232 511 265.5 493 c 128,-1,11
 299 475 299 475 322 439 c 1,12,13
 365 511 365 511 452 511 c 0,14,15
 535 511 535 511 581.5 437.5 c 128,-1,16
 628 364 628 364 628 240 c 0,17,18
 628 218 628 218 627 207 c 1,19,-1
 372 207 l 1,20,21
 377 152 377 152 397 123 c 128,-1,22
 417 94 417 94 449 94 c 0,23,24
 470 94 470 94 486.5 105.5 c 128,-1,25
 503 117 503 117 512 137 c 1,26,-1
 608 101 l 1,27,28
 578 45 578 45 535.5 16.5 c 128,-1,29
 493 -12 493 -12 446 -12 c 0,30,0
 359 -12 359 -12 313 55 c 1,1,2
247 145 m 128,-1,32
 265 182 265 182 265 251 c 0,33,34
 265 319 265 319 246.5 355 c 128,-1,35
 228 391 228 391 198 391 c 256,36,37
 168 391 168 391 149 355 c 128,-1,38
 130 319 130 319 130 251 c 0,39,40
 130 182 130 182 148.5 145 c 128,-1,41
 167 108 167 108 198 108 c 256,42,31
 229 108 229 108 247 145 c 128,-1,32
488 374 m 128,-1,44
 471 400 471 400 440 400 c 0,45,46
 382 400 382 400 372 297 c 1,47,-1
 506 297 l 1,48,43
 505 348 505 348 488 374 c 128,-1,44
EndSplineSet
EndChar
StartChar: Uring
Encoding: 366 366 95
Width: 632
GlyphClass: 2
Flags: W
AnchorPoint: "Anchor-3" 625 668 basechar 0
AnchorPoint: "Anchor-1" 316 927 basechar 0
LayerCount: 2
Fore
SplineSet
113 55 m 128,-1,1
 51 122 51 122 51 266 c 2,2,-1
 51 668 l 1,3,-1
 220 668 l 1,4,-1
 220 243 l 2,5,6
 220 185 220 185 241 155 c 128,-1,7
 262 125 262 125 318 125 c 0,8,9
 373 125 373 125 392.5 154.5 c 128,-1,10
 412 184 412 184 412 243 c 2,11,-1
 412 668 l 1,12,-1
 581 668 l 1,13,-1
 581 266 l 2,14,15
 581 122 581 122 519.5 55 c 128,-1,16
 458 -12 458 -12 317 -12 c 0,17,0
 175 -12 175 -12 113 55 c 128,-1,1
247 671.5 m 128,-1,19
 216 690 216 690 197.5 722 c 128,-1,20
 179 754 179 754 179 791 c 256,21,22
 179 828 179 828 197.5 859.5 c 128,-1,23
 216 891 216 891 247 909 c 128,-1,24
 278 927 278 927 315 927 c 256,25,26
 352 927 352 927 383.5 909 c 128,-1,27
 415 891 415 891 434 859.5 c 128,-1,28
 453 828 453 828 453 791 c 256,29,30
 453 754 453 754 434 722 c 128,-1,31
 415 690 415 690 383.5 671.5 c 128,-1,32
 352 653 352 653 315 653 c 256,33,18
 278 653 278 653 247 671.5 c 128,-1,19
348 758.5 m 128,-1,35
 361 772 361 772 361 791 c 0,36,37
 361 811 361 811 348 824 c 128,-1,38
 335 837 335 837 315 837 c 0,39,40
 296 837 296 837 282.5 823.5 c 128,-1,41
 269 810 269 810 269 791 c 256,42,43
 269 772 269 772 282.5 758.5 c 128,-1,44
 296 745 296 745 315 745 c 0,45,34
 335 745 335 745 348 758.5 c 128,-1,35
EndSplineSet
EndChar
StartChar: uni0237
Encoding: 567 567 159
Width: 632
GlyphClass: 2
Flags: W
AnchorPoint: "Anchor-1" 365 496 basechar 0
AnchorPoint: "Anchor-0" 345 -251 basechar 0
LayerCount: 2
Fore
SplineSet
68 -34 m 1,0,-1
 224 -34 l 2,1,2
 253 -34 253 -34 267 -31 c 128,-1,3
 281 -28 281 -28 286.5 -19 c 128,-1,4
 292 -10 292 -10 292 9 c 2,5,-1
 292 373 l 1,6,-1
 155 373 l 1,7,-1
 155 496 l 1,8,-1
 456 496 l 1,9,-1
 456 -8 l 2,10,11
 456 -68 456 -68 435 -101.5 c 128,-1,12
 414 -135 414 -135 370.5 -148.5 c 128,-1,13
 327 -162 327 -162 255 -162 c 2,14,-1
 68 -162 l 1,15,-1
 68 -34 l 1,0,-1
EndSplineSet
EndChar
StartChar: uni02C9
Encoding: 713 713 364
Width: 632
GlyphClass: 1
Flags: W
LayerCount: 2
Fore
SplineSet
165 644 m 1,0,-1
 468 644 l 1,1,-1
 468 541 l 1,2,-1
 165 541 l 1,3,-1
 165 644 l 1,0,-1
EndSplineSet
EndChar
StartChar: gravecomb
Encoding: 768 768 340
Width: 0
GlyphClass: 4
Flags: W
AnchorPoint: "Anchor-5" 366 731 basemark 0
AnchorPoint: "Anchor-5" 366 496 mark 0
AnchorPoint: "Anchor-1" 366 496 mark 0
LayerCount: 2
Fore
SplineSet
214.5 646 m 128,-1,1
 207 659 207 659 207 675 c 0,2,3
 207 698 207 698 223.5 714.5 c 128,-1,4
 240 731 240 731 266 731 c 0,5,6
 284 731 284 731 296 723 c 128,-1,7
 308 715 308 715 324 696 c 2,8,-1
 425 575 l 1,9,-1
 303 575 l 1,10,-1
 245 616 l 2,11,0
 222 633 222 633 214.5 646 c 128,-1,1
EndSplineSet
Substitution2: "Single Substitution lookup 12 subtable" gravecomb.case
Substitution2: "'case' Case-Sensitive Forms in Latin lookup 9 subtable" gravecomb.case
AlternateSubs2: "'aalt' Access All Alternates in Latin lookup 0 subtable" gravecomb.case
EndChar
StartChar: uni0306
Encoding: 774 774 351
Width: 0
GlyphClass: 4
Flags: W
AnchorPoint: "Anchor-5" 316 689 basemark 0
AnchorPoint: "Anchor-5" 316 496 mark 0
AnchorPoint: "Anchor-1" 316 496 mark 0
LayerCount: 2
Fore
SplineSet
214.5 596.5 m 128,-1,1
 176 632 176 632 166 689 c 1,2,-1
 254 689 l 1,3,4
 258 673 258 673 273.5 660.5 c 128,-1,5
 289 648 289 648 315 648 c 256,6,7
 341 648 341 648 358 660.5 c 128,-1,8
 375 673 375 673 378 689 c 1,9,-1
 466 689 l 1,10,11
 456 632 456 632 416.5 596.5 c 128,-1,12
 377 561 377 561 315 561 c 256,13,0
 253 561 253 561 214.5 596.5 c 128,-1,1
EndSplineSet
Substitution2: "Single Substitution lookup 12 subtable" uni0306.case
Substitution2: "'case' Case-Sensitive Forms in Latin lookup 9 subtable" uni0306.case
AlternateSubs2: "'aalt' Access All Alternates in Latin lookup 0 subtable" uni0306.case
EndChar
StartChar: uni0308
Encoding: 776 776 335
Width: 0
GlyphClass: 4
Flags: W
AnchorPoint: "Anchor-5" 316 727 basemark 0
AnchorPoint: "Anchor-5" 316 496 mark 0
AnchorPoint: "Anchor-1" 316 496 mark 0
LayerCount: 2
Fore
SplineSet
366.5 592.5 m 128,-1,1
 343 616 343 616 343 648 c 256,2,3
 343 680 343 680 366.5 703.5 c 128,-1,4
 390 727 390 727 422 727 c 256,5,6
 454 727 454 727 477 703.5 c 128,-1,7
 500 680 500 680 500 648 c 256,8,9
 500 616 500 616 477 592.5 c 128,-1,10
 454 569 454 569 422 569 c 256,11,0
 390 569 390 569 366.5 592.5 c 128,-1,1
155 592.5 m 128,-1,13
 132 616 132 616 132 648 c 256,14,15
 132 680 132 680 155 703.5 c 128,-1,16
 178 727 178 727 210 727 c 256,17,18
 242 727 242 727 265.5 703.5 c 128,-1,19
 289 680 289 680 289 648 c 256,20,21
 289 616 289 616 265.5 592.5 c 128,-1,22
 242 569 242 569 210 569 c 256,23,12
 178 569 178 569 155 592.5 c 128,-1,13
EndSplineSet
Substitution2: "Single Substitution lookup 12 subtable" uni0308.case
Substitution2: "'case' Case-Sensitive Forms in Latin lookup 9 subtable" uni0308.case
AlternateSubs2: "'aalt' Access All Alternates in Latin lookup 0 subtable" uni0308.case
EndChar
StartChar: uni0327
Encoding: 807 807 360
Width: 0
GlyphClass: 4
Flags: W
AnchorPoint: "Anchor-4" 305 -188 basemark 0
AnchorPoint: "Anchor-4" 305 0 mark 0
AnchorPoint: "Anchor-0" 305 0 mark 0
LayerCount: 2
Fore
SplineSet
206 -176 m 1,1,-1
 222 -124 l 1,2,3
 230 -128 230 -128 248 -132 c 128,-1,4
 266 -136 266 -136 284 -136 c 0,5,6
 327 -136 327 -136 327 -111 c 0,7,8
 327 -99 327 -99 316.5 -92 c 128,-1,9
 306 -85 306 -85 289 -85 c 0,10,11
 278 -85 278 -85 263 -90 c 2,12,-1
 255 -91 l 2,13,14
 246 -91 246 -91 240.5 -85.5 c 128,-1,15
 235 -80 235 -80 235 -71 c 0,16,17
 235 -65 235 -65 238 -59 c 2,18,-1
 290 25 l 1,19,-1
 334 0 l 1,20,-1
 303 -49 l 1,21,22
 315 -46 315 -46 337 -46 c 0,23,24
 372 -46 372 -46 399.5 -60.5 c 128,-1,25
 427 -75 427 -75 427 -108 c 0,26,27
 427 -151 427 -151 388.5 -169.5 c 128,-1,28
 350 -188 350 -188 294 -188 c 0,29,0
 245 -188 245 -188 206 -176 c 1,1,-1
EndSplineSet
EndChar
StartChar: uni0328
Encoding: 808 808 361
Width: 0
GlyphClass: 4
Flags: W
AnchorPoint: "Anchor-2" 433 10 mark 0
LayerCount: 2
Fore
SplineSet
235 -147.5 m 128,-1,1
 200 -119 200 -119 200 -84 c 0,2,3
 200 -46 200 -46 226 -23 c 128,-1,4
 252 0 252 0 293 17 c 1,5,-1
 433 0 l 1,6,7
 384 -9 384 -9 360 -27 c 128,-1,8
 336 -45 336 -45 336 -65 c 0,9,10
 336 -81 336 -81 349.5 -88 c 128,-1,11
 363 -95 363 -95 382 -95 c 0,12,13
 404 -95 404 -95 433 -86 c 1,14,-1
 433 -167 l 1,15,16
 421 -170 421 -170 395.5 -173 c 128,-1,17
 370 -176 370 -176 351 -176 c 0,18,0
 270 -176 270 -176 235 -147.5 c 128,-1,1
EndSplineSet
Substitution2: "Single Substitution lookup 12 subtable" uni0328.case
Substitution2: "'case' Case-Sensitive Forms in Latin lookup 9 subtable" uni0328.case
AlternateSubs2: "'aalt' Access All Alternates in Latin lookup 0 subtable" uni0328.case
EndChar
StartChar: uni03A9
Encoding: 937 937 226
Width: 632
GlyphClass: 1
Flags: W
LayerCount: 2
Fore
SplineSet
33 120 m 1,0,-1
 158 120 l 1,1,-1
 158 141 l 1,2,3
 96 181 96 181 59.5 246 c 128,-1,4
 23 311 23 311 23 386 c 0,5,6
 23 466 23 466 62.5 533.5 c 128,-1,7
 102 601 102 601 169 640.5 c 128,-1,8
 236 680 236 680 316 680 c 256,9,10
 396 680 396 680 463 640.5 c 128,-1,11
 530 601 530 601 569.5 533.5 c 128,-1,12
 609 466 609 466 609 386 c 0,13,14
 609 311 609 311 572.5 246 c 128,-1,15
 536 181 536 181 474 141 c 1,16,-1
 474 120 l 1,17,-1
 599 120 l 1,18,-1
 599 0 l 1,19,-1
 335 0 l 1,20,-1
 335 231 l 1,21,22
 397 239 397 239 438.5 285.5 c 128,-1,23
 480 332 480 332 480 393 c 0,24,25
 480 437 480 437 458 475 c 128,-1,26
 436 513 436 513 398 535 c 128,-1,27
 360 557 360 557 316 557 c 256,28,29
 272 557 272 557 234 535 c 128,-1,30
 196 513 196 513 174 475 c 128,-1,31
 152 437 152 437 152 393 c 0,32,33
 152 332 152 332 193.5 285.5 c 128,-1,34
 235 239 235 239 297 231 c 1,35,-1
 297 0 l 1,36,-1
 33 0 l 1,37,-1
 33 120 l 1,0,-1
EndSplineSet
EndChar
StartChar: uni1E9E
Encoding: 7838 7838 82
Width: 632
GlyphClass: 1
Flags: W
LayerCount: 2
Fore
SplineSet
241 112 m 1,1,-1
 366 159 l 1,2,3
 378 119 378 119 414 119 c 0,4,5
 436 119 436 119 449 138.5 c 128,-1,6
 462 158 462 158 462 197 c 0,7,8
 462 234 462 234 444.5 253.5 c 128,-1,9
 427 273 427 273 401 273 c 0,10,11
 379 273 379 273 361 265 c 1,12,-1
 303 363 l 1,13,-1
 449 545 l 1,14,15
 404 551 404 551 371 551 c 0,16,17
 288 551 288 551 248.5 515.5 c 128,-1,18
 209 480 209 480 209 410 c 2,19,-1
 209 0 l 1,20,-1
 40 0 l 1,21,-1
 40 448 l 2,22,23
 40 562 40 562 107.5 621 c 128,-1,24
 175 680 175 680 334 680 c 0,25,26
 466 680 466 680 587 656 c 1,27,-1
 587 517 l 1,28,-1
 470 372 l 1,29,30
 536 358 536 358 576.5 309.5 c 128,-1,31
 617 261 617 261 617 193 c 0,32,33
 617 133 617 133 589.5 86 c 128,-1,34
 562 39 562 39 517 13.5 c 128,-1,35
 472 -12 472 -12 422 -12 c 0,36,0
 289 -12 289 -12 241 112 c 1,1,-1
EndSplineSet
EndChar
StartChar: quoteleft
Encoding: 8216 8216 278
Width: 632
GlyphClass: 1
Flags: W
LayerCount: 2
Fore
SplineSet
235 323.5 m 128,-1,1
 202 357 202 357 202 405 c 0,2,3
 202 429 202 429 209 447 c 2,4,-1
 297 668 l 1,5,-1
 403 668 l 1,6,-1
 344 515 l 1,7,8
 381 507 381 507 405.5 475.5 c 128,-1,9
 430 444 430 444 430 405 c 0,10,11
 430 357 430 357 396.5 323.5 c 128,-1,12
 363 290 363 290 316 290 c 0,13,0
 268 290 268 290 235 323.5 c 128,-1,1
EndSplineSet
EndChar
StartChar: quoteright
Encoding: 8217 8217 279
Width: 632
GlyphClass: 1
Flags: W
LayerCount: 2
Fore
SplineSet
226.5 495 m 128,-1,1
 202 527 202 527 202 566 c 0,2,3
 202 613 202 613 235.5 646.5 c 128,-1,4
 269 680 269 680 316 680 c 0,5,6
 364 680 364 680 397 646.5 c 128,-1,7
 430 613 430 613 430 566 c 0,8,9
 430 542 430 542 423 524 c 2,10,-1
 335 302 l 1,11,-1
 229 302 l 1,12,-1
 288 455 l 1,13,0
 251 463 251 463 226.5 495 c 128,-1,1
EndSplineSet
EndChar
StartChar: quotedblleft
Encoding: 8220 8220 276
Width: 632
GlyphClass: 1
Flags: W
LayerCount: 2
Fore
SplineSet
374 340 m 128,-1,1
 342 372 342 372 342 418 c 0,2,3
 342 440 342 440 349 458 c 2,4,-1
 434 668 l 1,5,-1
 534 668 l 1,6,-1
 478 522 l 1,7,8
 513 514 513 514 537 484 c 128,-1,9
 561 454 561 454 561 418 c 0,10,11
 561 373 561 373 529 340.5 c 128,-1,12
 497 308 497 308 452 308 c 0,13,0
 406 308 406 308 374 340 c 128,-1,1
103 339 m 128,-1,15
 71 371 71 371 71 417 c 0,16,17
 71 439 71 439 78 457 c 2,18,-1
 163 667 l 1,19,-1
 263 667 l 1,20,-1
 207 521 l 1,21,22
 242 513 242 513 266 483 c 128,-1,23
 290 453 290 453 290 417 c 0,24,25
 290 371 290 371 257.5 339 c 128,-1,26
 225 307 225 307 180 307 c 256,27,14
 135 307 135 307 103 339 c 128,-1,15
EndSplineSet
EndChar
StartChar: quotedblright
Encoding: 8221 8221 277
Width: 632
GlyphClass: 1
Flags: W
LayerCount: 2
Fore
SplineSet
366 505 m 128,-1,1
 342 535 342 535 342 572 c 0,2,3
 342 617 342 617 374.5 649 c 128,-1,4
 407 681 407 681 452 681 c 256,5,6
 497 681 497 681 529 649 c 128,-1,7
 561 617 561 617 561 572 c 0,8,9
 561 550 561 550 554 532 c 2,10,-1
 469 321 l 1,11,-1
 369 321 l 1,12,-1
 425 467 l 1,13,0
 390 475 390 475 366 505 c 128,-1,1
95 504 m 128,-1,15
 71 534 71 534 71 571 c 0,16,17
 71 616 71 616 103.5 648 c 128,-1,18
 136 680 136 680 180 680 c 0,19,20
 226 680 226 680 258 648 c 128,-1,21
 290 616 290 616 290 571 c 0,22,23
 290 549 290 549 283 531 c 2,24,-1
 198 320 l 1,25,-1
 98 320 l 1,26,-1
 154 466 l 1,27,14
 119 474 119 474 95 504 c 128,-1,15
EndSplineSet
EndChar
StartChar: quotedblbase
Encoding: 8222 8222 275
Width: 632
GlyphClass: 1
Flags: W
LayerCount: 2
Fore
SplineSet
95 20 m 128,-1,1
 71 50 71 50 71 87 c 0,2,3
 71 132 71 132 103.5 164 c 128,-1,4
 136 196 136 196 180 196 c 0,5,6
 226 196 226 196 258 164 c 128,-1,7
 290 132 290 132 290 87 c 0,8,9
 290 65 290 65 283 47 c 2,10,-1
 198 -164 l 1,11,-1
 98 -164 l 1,12,-1
 154 -18 l 1,13,0
 119 -10 119 -10 95 20 c 128,-1,1
366 21 m 128,-1,15
 342 51 342 51 342 88 c 0,16,17
 342 133 342 133 374.5 165 c 128,-1,18
 407 197 407 197 452 197 c 256,19,20
 497 197 497 197 529 165 c 128,-1,21
 561 133 561 133 561 88 c 0,22,23
 561 66 561 66 554 48 c 2,24,-1
 469 -163 l 1,25,-1
 369 -163 l 1,26,-1
 425 -17 l 1,27,14
 390 -9 390 -9 366 21 c 128,-1,15
EndSplineSet
EndChar
StartChar: daggerdbl
Encoding: 8225 8225 300
Width: 632
GlyphClass: 1
Flags: W
LayerCount: 2
Fore
SplineSet
239 173 m 1,0,-1
 55 173 l 1,1,-1
 55 294 l 1,2,-1
 239 294 l 1,3,-1
 239 374 l 1,4,-1
 55 374 l 1,5,-1
 55 496 l 1,6,-1
 239 496 l 1,7,-1
 239 668 l 1,8,-1
 394 668 l 1,9,-1
 394 496 l 1,10,-1
 577 496 l 1,11,-1
 577 374 l 1,12,-1
 394 374 l 1,13,-1
 394 294 l 1,14,-1
 577 294 l 1,15,-1
 577 173 l 1,16,-1
 394 173 l 1,17,-1
 394 0 l 1,18,-1
 239 0 l 1,19,-1
 239 173 l 1,0,-1
EndSplineSet
EndChar
StartChar: Euro
Encoding: 8364 8364 305
Width: 632
GlyphClass: 1
Flags: W
LayerCount: 2
Fore
SplineSet
187.5 58 m 128,-1,1
 118 128 118 128 95 230 c 1,2,-1
 8 230 l 1,3,-1
 46 308 l 1,4,-1
 85 308 l 1,5,6
 83 342 83 342 87 364 c 1,7,-1
 7 364 l 1,8,-1
 45 442 l 1,9,-1
 98 442 l 1,10,11
 125 561 125 561 199 620.5 c 128,-1,12
 273 680 273 680 372 680 c 0,13,14
 450 680 450 680 510 638 c 128,-1,15
 570 596 570 596 604 524 c 1,16,-1
 466 474 l 1,17,18
 451 508 451 508 424 524.5 c 128,-1,19
 397 541 397 541 366 541 c 0,20,21
 330 541 330 541 302.5 516.5 c 128,-1,22
 275 492 275 492 261 442 c 1,23,-1
 437 442 l 1,24,-1
 399 364 l 1,25,-1
 249 364 l 1,26,27
 248 355 248 355 248 337 c 0,28,29
 248 318 248 318 249 308 c 1,30,-1
 370 308 l 1,31,-1
 332 230 l 1,32,-1
 262 230 l 1,33,34
 276 181 276 181 304 154 c 128,-1,35
 332 127 332 127 370 127 c 0,36,37
 444 127 444 127 470 194 c 1,38,-1
 607 143 l 1,39,40
 573 71 573 71 510.5 29.5 c 128,-1,41
 448 -12 448 -12 369 -12 c 0,42,0
 257 -12 257 -12 187.5 58 c 128,-1,1
EndSplineSet
EndChar
StartChar: uni20B9
Encoding: 8377 8377 306
Width: 632
GlyphClass: 1
Flags: W
LayerCount: 2
Fore
SplineSet
63 289 m 1,0,-1
 63 356 l 1,1,-1
 243 356 l 2,2,3
 306 356 306 356 322 407 c 1,4,-1
 63 407 l 1,5,-1
 63 485 l 1,6,-1
 322 485 l 1,7,8
 306 536 306 536 243 536 c 2,9,-1
 63 536 l 1,10,-1
 63 668 l 1,11,-1
 583 668 l 1,12,-1
 583 590 l 1,13,-1
 442 590 l 1,14,15
 482 550 482 550 491 485 c 1,16,-1
 583 485 l 1,17,-1
 583 407 l 1,18,-1
 491 407 l 1,19,20
 481 335 481 335 435 291.5 c 128,-1,21
 389 248 389 248 319 234 c 1,22,-1
 540 0 l 1,23,-1
 332 0 l 1,24,-1
 63 289 l 1,0,-1
EndSplineSet
EndChar
StartChar: trademark
Encoding: 8482 8482 294
Width: 632
GlyphClass: 1
Flags: W
LayerCount: 2
Fore
SplineSet
85 588 m 1,0,-1
 4 588 l 1,1,-1
 4 668 l 1,2,-1
 249 668 l 1,3,-1
 249 588 l 1,4,-1
 168 588 l 1,5,-1
 168 343 l 1,6,-1
 85 343 l 1,7,-1
 85 588 l 1,0,-1
271 668 m 1,8,-1
 403 668 l 1,9,-1
 449 463 l 1,10,-1
 453 463 l 1,11,-1
 499 668 l 1,12,-1
 628 668 l 1,13,-1
 628 343 l 1,14,-1
 548 343 l 1,15,-1
 548 572 l 1,16,-1
 544 572 l 1,17,-1
 486 343 l 1,18,-1
 413 343 l 1,19,-1
 355 572 l 1,20,-1
 351 572 l 1,21,-1
 351 343 l 1,22,-1
 271 343 l 1,23,-1
 271 668 l 1,8,-1
EndSplineSet
EndChar
StartChar: product
Encoding: 8719 8719 328
Width: 632
GlyphClass: 1
Flags: W
LayerCount: 2
Fore
SplineSet
67 668 m 1,0,-1
 565 668 l 1,1,-1
 565 -162 l 1,2,-1
 429 -162 l 1,3,-1
 429 546 l 1,4,-1
 203 546 l 1,5,-1
 203 -162 l 1,6,-1
 67 -162 l 1,7,-1
 67 668 l 1,0,-1
EndSplineSet
EndChar
StartChar: radical
Encoding: 8730 8730 330
Width: 632
GlyphClass: 1
Flags: W
LayerCount: 2
Fore
SplineSet
138 84 m 1,0,-1
 10 84 l 1,1,-1
 10 225 l 1,2,-1
 235 225 l 1,3,-1
 311 34 l 1,4,-1
 470 668 l 1,5,-1
 623 668 l 1,6,-1
 412 -162 l 1,7,-1
 246 -162 l 1,8,-1
 138 84 l 1,0,-1
EndSplineSet
EndChar
StartChar: infinity
Encoding: 8734 8734 326
Width: 632
GlyphClass: 1
Flags: W
LayerCount: 2
Fore
SplineSet
58.5 140.5 m 128,-1,1
 13 185 13 185 13 256 c 256,2,3
 13 327 13 327 58.5 371.5 c 128,-1,4
 104 416 104 416 175 416 c 0,5,6
 221 416 221 416 253.5 397 c 128,-1,7
 286 378 286 378 316 342 c 1,8,9
 346 378 346 378 378.5 397 c 128,-1,10
 411 416 411 416 457 416 c 0,11,12
 528 416 528 416 573.5 371.5 c 128,-1,13
 619 327 619 327 619 256 c 256,14,15
 619 185 619 185 573.5 140.5 c 128,-1,16
 528 96 528 96 457 96 c 0,17,18
 411 96 411 96 378.5 115 c 128,-1,19
 346 134 346 134 316 170 c 1,20,21
 286 134 286 134 253.5 115 c 128,-1,22
 221 96 221 96 175 96 c 0,23,0
 104 96 104 96 58.5 140.5 c 128,-1,1
217.5 221 m 128,-1,25
 233 233 233 233 251 256 c 1,26,27
 233 279 233 279 217.5 291 c 128,-1,28
 202 303 202 303 180 303 c 256,29,30
 158 303 158 303 145.5 290 c 128,-1,31
 133 277 133 277 133 256 c 256,32,33
 133 235 133 235 145.5 222 c 128,-1,34
 158 209 158 209 180 209 c 256,35,24
 202 209 202 209 217.5 221 c 128,-1,25
486.5 222 m 128,-1,37
 499 235 499 235 499 256 c 256,38,39
 499 277 499 277 486.5 290 c 128,-1,40
 474 303 474 303 452 303 c 256,41,42
 430 303 430 303 414.5 291 c 128,-1,43
 399 279 399 279 381 256 c 1,44,45
 399 233 399 233 414.5 221 c 128,-1,46
 430 209 430 209 452 209 c 256,47,36
 474 209 474 209 486.5 222 c 128,-1,37
EndSplineSet
EndChar
StartChar: lessequal
Encoding: 8804 8804 320
Width: 632
GlyphClass: 1
Flags: W
LayerCount: 2
Fore
SplineSet
57 259 m 1,0,-1
 57 394 l 1,1,-1
 575 511 l 1,2,-1
 575 375 l 1,3,-1
 244 328 l 1,4,-1
 575 278 l 1,5,-1
 575 143 l 1,6,-1
 57 259 l 1,0,-1
57 136 m 1,7,-1
 575 136 l 1,8,-1
 575 0 l 1,9,-1
 57 0 l 1,10,-1
 57 136 l 1,7,-1
EndSplineSet
EndChar
StartChar: lozenge
Encoding: 9674 9674 334
Width: 632
GlyphClass: 1
Flags: W
LayerCount: 2
Fore
SplineSet
48 313 m 1,0,-1
 316 718 l 1,1,-1
 584 313 l 1,2,-1
 316 -94 l 1,3,-1
 48 313 l 1,0,-1
437 313 m 1,4,-1
 316 493 l 1,5,-1
 194 313 l 1,6,-1
 316 132 l 1,7,-1
 437 313 l 1,4,-1
EndSplineSet
EndChar
StartChar: acutecomb.case
Encoding: 65544 -1 343
Width: 0
GlyphClass: 4
Flags: W
AnchorPoint: "Anchor-5" 260 885 basemark 0
AnchorPoint: "Anchor-5" 260 668 mark 0
AnchorPoint: "Anchor-1" 260 668 mark 0
LayerCount: 2
Fore
SplineSet
372 886 m 0,1,2
 399 886 399 886 414.5 870 c 128,-1,3
 430 854 430 854 430 831 c 0,4,5
 430 814 430 814 422.5 800.5 c 128,-1,6
 415 787 415 787 393 772 c 2,7,-1
 333 729 l 1,8,-1
 202 729 l 1,9,-1
 307 848 l 2,10,0
 339 886 339 886 372 886 c 0,1,2
EndSplineSet
EndChar
StartChar: uni0307.case
Encoding: 65541 -1 338
Width: 0
GlyphClass: 4
Flags: W
AnchorPoint: "Anchor-5" 316 875 basemark 0
AnchorPoint: "Anchor-5" 316 668 mark 0
AnchorPoint: "Anchor-1" 316 668 mark 0
LayerCount: 2
Fore
SplineSet
260.5 740.5 m 128,-1,1
 237 764 237 764 237 796 c 256,2,3
 237 828 237 828 260.5 851.5 c 128,-1,4
 284 875 284 875 316 875 c 256,5,6
 348 875 348 875 371.5 851.5 c 128,-1,7
 395 828 395 828 395 796 c 256,8,9
 395 764 395 764 371.5 740.5 c 128,-1,10
 348 717 348 717 316 717 c 256,11,0
 284 717 284 717 260.5 740.5 c 128,-1,1
EndSplineSet
EndChar
StartChar: uni030A.case
Encoding: 65550 -1 354
Width: 0
GlyphClass: 4
Flags: W
AnchorPoint: "Anchor-5" 316 865 basemark 0
AnchorPoint: "Anchor-5" 316 668 mark 0
AnchorPoint: "Anchor-1" 316 668 mark 0
LayerCount: 2
Fore
SplineSet
247 609.5 m 128,-1,1
 216 628 216 628 197.5 660 c 128,-1,2
 179 692 179 692 179 729 c 256,3,4
 179 766 179 766 197.5 797.5 c 128,-1,5
 216 829 216 829 247 847 c 128,-1,6
 278 865 278 865 315 865 c 256,7,8
 352 865 352 865 383.5 847 c 128,-1,9
 415 829 415 829 434 797.5 c 128,-1,10
 453 766 453 766 453 729 c 256,11,12
 453 692 453 692 434 660 c 128,-1,13
 415 628 415 628 383.5 609.5 c 128,-1,14
 352 591 352 591 315 591 c 256,15,0
 278 591 278 591 247 609.5 c 128,-1,1
349 695.5 m 128,-1,17
 362 709 362 709 362 728 c 0,18,19
 362 748 362 748 349 761 c 128,-1,20
 336 774 336 774 316 774 c 0,21,22
 297 774 297 774 283.5 760.5 c 128,-1,23
 270 747 270 747 270 728 c 256,24,25
 270 709 270 709 283.5 695.5 c 128,-1,26
 297 682 297 682 316 682 c 0,27,16
 336 682 336 682 349 695.5 c 128,-1,17
EndSplineSet
EndChar
StartChar: uni0328.case
Encoding: 65554 -1 363
Width: 0
GlyphClass: 4
Flags: W
AnchorPoint: "Anchor-2" 433 10 mark 0
LayerCount: 2
Fore
SplineSet
235 -147.5 m 128,-1,1
 200 -119 200 -119 200 -84 c 0,2,3
 200 -52 200 -52 223.5 -28.5 c 128,-1,4
 247 -5 247 -5 284 8 c 1,5,-1
 433 0 l 1,6,7
 402 -2 402 -2 369.5 -21.5 c 128,-1,8
 337 -41 337 -41 337 -64 c 0,9,10
 337 -79 337 -79 349 -87 c 128,-1,11
 361 -95 361 -95 379 -95 c 0,12,13
 402 -95 402 -95 433 -86 c 1,14,-1
 433 -167 l 1,15,16
 421 -170 421 -170 395.5 -173 c 128,-1,17
 370 -176 370 -176 351 -176 c 0,18,0
 270 -176 270 -176 235 -147.5 c 128,-1,1
EndSplineSet
EndChar
StartChar: zero.zero
Encoding: 65539 -1 239
Width: 632
GlyphClass: 1
Flags: W
LayerCount: 2
Fore
SplineSet
101.5 81 m 128,-1,1
 26 174 26 174 26 335 c 256,2,3
 26 496 26 496 101 588 c 128,-1,4
 176 680 176 680 316 680 c 256,5,6
 456 680 456 680 531 588.5 c 128,-1,7
 606 497 606 497 606 335 c 0,8,9
 606 174 606 174 531 81 c 128,-1,10
 456 -12 456 -12 316 -12 c 0,11,0
 177 -12 177 -12 101.5 81 c 128,-1,1
409.5 163.5 m 128,-1,13
 442 220 442 220 442 336 c 0,14,15
 442 422 442 422 413.5 491.5 c 128,-1,16
 385 561 385 561 316 561 c 0,17,18
 248 561 248 561 219 491.5 c 128,-1,19
 190 422 190 422 190 336 c 0,20,21
 190 221 190 221 223.5 164 c 128,-1,22
 257 107 257 107 316 107 c 0,23,12
 377 107 377 107 409.5 163.5 c 128,-1,13
256 274 m 128,-1,25
 231 299 231 299 231 334 c 256,26,27
 231 369 231 369 256 394 c 128,-1,28
 281 419 281 419 316 419 c 256,29,30
 351 419 351 419 376 394 c 128,-1,31
 401 369 401 369 401 334 c 256,32,33
 401 299 401 299 376 274 c 128,-1,34
 351 249 351 249 316 249 c 256,35,24
 281 249 281 249 256 274 c 128,-1,25
EndSplineSet
EndChar
